<svg version="1.0" xmlns="http://www.w3.org/2000/svg" width="306.667" height="306.667" viewBox="0 0 230 230"><path d="M3.9 22.9c-.1.3-.2 33.6-.3 73.8-.1 48.1.2 73.4.9 73.6.5.2 24.2.3 52.5.3l51.5-.1.1-13.8.1-13.7-19.6-.1c-10.8 0-27.4 0-36.9.1l-17.2.1.1-17 .1-17h33.7c18.5 0 34.6-.1 35.9-.1 2.2 0 2.2-.2 2.2-13.8V81.4l-35.7.1H35.5l-.3-15.8-.3-15.7h73.8l-.1-13.8-.1-13.7-52.2-.1c-28.8 0-52.4.2-52.4.5zm117.7 41.3c.4.6 7.2 10.6 15.2 22.2 8 11.6 15.7 22.9 17.2 25.1l2.7 4-12.8 18.5c-7 10.2-15.5 22.4-18.8 27.2-3.4 4.8-6.1 8.9-6.1 9.1 0 .2 7 .3 15.5.3l15.4-.1 8.3-12c4.6-6.6 10.1-14.6 12.2-17.8 2.2-3.1 4.2-5.7 4.6-5.7.3 0 1.5 1.5 2.6 3.3 1 1.8 6.3 9.8 11.7 17.7l9.8 14.5h15.5c12.8 0 15.3-.2 14.9-1.3-.5-1.4-8.9-13.5-28.3-41-4.5-6.4-8.1-12.4-7.9-13.2.2-.8 8.1-12.7 17.6-26.3C220.3 75 228 63.6 228 63.4c0-.2-7-.4-15.5-.4H197l-1.7 2.7c-1 1.6-2 3-2.3 3.3-.3.3-4.5 6.5-9.3 13.8l-8.8 13.4-4.2-6c-2.3-3.3-7.3-10.7-11.2-16.6l-7-10.6h-15.8c-11.9 0-15.6.3-15.1 1.2z"/></svg>