<svg width="288" height="108" fill="none" xmlns="http://www.w3.org/2000/svg"><mask id="mask0" maskUnits="userSpaceOnUse" x="0" y="0" width="288" height="108"><rect width="288" height="108" rx="11.964" fill="#fff"/></mask><g mask="url(#mask0)"><path d="M55.549 107.572c13.227 0 14.122-9.11 28.202-9.11 27.774 0 18.374-15.711 36.748-6.738 15.659 7.648 21.583-29.757 33.53-29.757 11.946 0 11.52 6.902 27.733 6.902s14.369-14.742 23.893-14.441c6.827.216 9.387 20.265 21.76 20.265 12.373 0 10.24-28.473 29.013-28.688 11.093-.128 12.8 6.686 17.92 9.922 4.096 2.589 11.378 2.668 14.507 1.59" stroke="#E81E1E" stroke-width="2.564"/><path opacity=".2" d="M45.376 109.472c3.62-.931 7.456-2.793 17.01-2.793 12.304 0 15.99 2.793 27.208 2.793 11.219 0 11.979-4.717 23.921-4.717 23.559 0 20.997-11.82 30.058-8.33 12.502 4.814 20.787-10.536 30.92-10.536 10.134 0 9.772 3.575 23.524 3.575s14.476-7.59 20.266-7.479c5.791.112 7.962 10.495 18.458 10.495 10.495 0 12.607-14.857 24.609-14.857 7.57 0 10.857 3.463 15.2 5.139 3.474 1.34 9.651 1.381 12.305.823" stroke="#E81E1E" stroke-width="2.564"/><circle cx="153.828" cy="61.386" r="3.418" fill="#E81E1E"/><circle cx="111.953" cy="88.733" r="3.418" fill="#E81E1E"/><circle cx="182.03" cy="69.077" r="3.418" fill="#E81E1E"/><circle cx="227.323" cy="74.205" r="3.418" fill="#E81E1E"/><circle cx="255.525" cy="46.003" r="3.418" fill="#E81E1E"/><circle cx="204.249" cy="53.694" r="3.418" fill="#E81E1E"/></g></svg>