<svg width="115" height="18" fill="none" xmlns="http://www.w3.org/2000/svg"><path d="M9.76 14H.32V.66h9.44v2.5h-6.6v2.82h6.46v2.5H3.16v3.02h6.6V14zm10.98 0H17.9l-2.2-3.26L13.48 14h-2.82l3.42-4.96-3.22-4.7h2.84l2 2.98 1.98-2.98h2.84l-3.24 4.7L20.74 14zm6.778.24c-1.213 0-2.206-.493-2.98-1.48v4.92h-2.54V4.34h2.54v1.22c.76-.973 1.754-1.46 2.98-1.46 1.267 0 2.294.453 3.08 1.36.8.893 1.2 2.127 1.2 3.7 0 1.573-.4 2.813-1.2 3.72-.786.907-1.813 1.36-3.08 1.36zm-.8-2.26c.734 0 1.32-.26 1.76-.78.454-.52.68-1.2.68-2.04 0-.827-.226-1.5-.68-2.02-.44-.52-1.026-.78-1.76-.78a2.69 2.69 0 00-1.24.32c-.413.213-.726.473-.94.78v3.42c.214.307.527.567.94.78.427.213.84.32 1.24.32zm11.48 2.26c-1.493 0-2.726-.467-3.7-1.4-.973-.933-1.46-2.16-1.46-3.68 0-1.427.467-2.627 1.4-3.6.947-.973 2.147-1.46 3.6-1.46 1.44 0 2.607.493 3.5 1.48.894.973 1.34 2.253 1.34 3.84v.56h-7.18c.08.64.367 1.173.86 1.6.494.427 1.134.64 1.92.64a4.18 4.18 0 001.38-.26c.507-.173.907-.407 1.2-.7l1.12 1.64c-.973.893-2.3 1.34-3.98 1.34zm2.22-5.98c-.04-.547-.26-1.04-.66-1.48-.386-.44-.96-.66-1.72-.66-.72 0-1.28.22-1.68.66-.4.427-.633.92-.7 1.48h4.76zM47.253 14h-2.54V4.34h2.54v1.32c.36-.453.82-.827 1.38-1.12a3.63 3.63 0 011.7-.44v2.48a3.243 3.243 0 00-.7-.06c-.427 0-.88.107-1.36.32-.48.213-.82.473-1.02.78V14zm7.907.24c-.893 0-1.573-.227-2.04-.68-.466-.453-.7-1.107-.7-1.96V6.56h-1.6V4.34h1.6V1.7h2.56v2.64h1.96v2.22h-1.96v4.36c0 .307.08.56.24.76.16.2.373.3.64.3.4 0 .694-.093.88-.28l.54 1.92c-.467.413-1.173.62-2.12.62z" fill="#E81E1E"/><path d="M64.678 14h-2.86V3.16h-3.9V.66h10.64v2.5h-3.88V14zm12.418 0h-2.54v-1c-.693.827-1.713 1.24-3.06 1.24-.867 0-1.647-.28-2.34-.84-.68-.573-1.02-1.36-1.02-2.36 0-1.04.333-1.82 1-2.34.68-.52 1.467-.78 2.36-.78 1.373 0 2.393.393 3.06 1.18V7.8c0-.493-.193-.887-.58-1.18-.387-.293-.9-.44-1.54-.44-1.053 0-1.993.38-2.82 1.14l-.96-1.7c1.147-1.013 2.553-1.52 4.22-1.52 1.24 0 2.253.287 3.04.86.787.573 1.18 1.507 1.18 2.8V14zm-4.58-1.48c.947 0 1.627-.28 2.04-.84v-1.2c-.413-.56-1.093-.84-2.04-.84-.52 0-.953.133-1.3.4-.347.253-.52.607-.52 1.06 0 .44.173.787.52 1.04.347.253.78.38 1.3.38zm9.64 1.48h-2.54V4.34h2.54v1.32c.36-.453.82-.827 1.38-1.12a3.629 3.629 0 011.7-.44v2.48a3.244 3.244 0 00-.7-.06c-.427 0-.88.107-1.36.32-.48.213-.82.473-1.02.78V14zm8.626 3.92c-1.666 0-3.053-.48-4.16-1.44l1.14-1.84c.72.8 1.727 1.2 3.02 1.2.72 0 1.34-.193 1.86-.58.534-.373.8-.993.8-1.86v-.98c-.8 1.013-1.793 1.52-2.98 1.52-1.253 0-2.28-.427-3.08-1.28-.786-.867-1.18-2.08-1.18-3.64 0-1.547.394-2.753 1.18-3.62.8-.867 1.827-1.3 3.08-1.3 1.2 0 2.194.493 2.98 1.48V4.34h2.56v9c0 .88-.16 1.633-.48 2.26-.306.627-.726 1.1-1.26 1.42a5.742 5.742 0 01-1.66.68c-.56.147-1.166.22-1.82.22zm.48-6.24c.414 0 .827-.107 1.24-.32.414-.213.727-.473.94-.78V7.46c-.213-.32-.526-.58-.94-.78-.4-.213-.813-.32-1.24-.32-.733 0-1.326.24-1.78.72-.44.48-.66 1.127-.66 1.94s.22 1.46.66 1.94c.454.48 1.047.72 1.78.72zm11.8 2.56c-1.494 0-2.727-.467-3.7-1.4-.974-.933-1.46-2.16-1.46-3.68 0-1.427.466-2.627 1.4-3.6.946-.973 2.146-1.46 3.6-1.46 1.44 0 2.606.493 3.5 1.48.893.973 1.34 2.253 1.34 3.84v.56h-7.18c.08.64.366 1.173.86 1.6.493.427 1.133.64 1.92.64.426 0 .886-.087 1.38-.26.506-.173.906-.407 1.2-.7l1.12 1.64c-.974.893-2.3 1.34-3.98 1.34zm2.22-5.98c-.04-.547-.26-1.04-.66-1.48-.387-.44-.96-.66-1.72-.66-.72 0-1.28.22-1.68.66-.4.427-.634.92-.7 1.48h4.76zm7.534 5.98c-.893 0-1.573-.227-2.04-.68-.466-.453-.7-1.107-.7-1.96V6.56h-1.6V4.34h1.6V1.7h2.56v2.64h1.96v2.22h-1.96v4.36c0 .307.08.56.24.76.16.2.374.3.64.3.4 0 .694-.093.88-.28l.54 1.92c-.466.413-1.173.62-2.12.62z" fill="#000"/></svg>