<svg width="48" height="48" fill="none" xmlns="http://www.w3.org/2000/svg"><path d="M23.999 0C10.746 0 0 10.746 0 23.999 0 37.252 10.746 48 23.999 48 37.252 48 48 37.252 48 23.999 48 10.746 37.252 0 23.999 0zm4.996 37.195a79.228 79.228 0 01-2.956 1.114c-.736.256-1.591.384-2.564.384-1.496 0-2.66-.366-3.489-1.096-.829-.729-1.241-1.653-1.241-2.777 0-.437.03-.884.091-1.339.063-.455.163-.967.299-1.542l1.546-5.461a27.99 27.99 0 00.348-1.486 6.59 6.59 0 00.138-1.286c0-.694-.145-1.182-.431-1.456-.29-.275-.837-.409-1.652-.409-.398 0-.808.06-1.229.183a17.44 17.44 0 00-1.075.358l.409-1.683a38.531 38.531 0 012.905-1.058c.924-.297 1.798-.443 2.62-.443 1.486 0 2.632.362 3.439 1.077.802.717 1.207 1.65 1.207 2.796 0 .237-.029.656-.084 1.253a8.395 8.395 0 01-.309 1.648l-1.538 5.445c-.126.437-.237.936-.339 1.495-.1.559-.148.986-.148 1.272 0 .723.16 1.217.485 1.48.321.261.884.393 1.68.393.376 0 .797-.067 1.272-.197.472-.13.813-.245 1.028-.345l-.412 1.68zm-.272-22.101c-.717.666-1.58 1-2.59 1-1.008 0-1.878-.334-2.601-1-.72-.667-1.083-1.477-1.083-2.424 0-.945.365-1.758 1.083-2.43.723-.675 1.593-1.01 2.6-1.01 1.01 0 1.876.335 2.59 1.01.718.672 1.078 1.485 1.078 2.43 0 .949-.36 1.757-1.077 2.424z" fill="#CFD6E6"/></svg>