<svg width="275" height="108" xmlns="http://www.w3.org/2000/svg"><path opacity=".7" d="M146.915 61.932a5.237 5.237 0 00-1.949-.694 5.114 5.114 0 00-3.884 1.04c-.545.429-1 .964-1.341 1.577l-.707 1.27-1.248-.746a5.172 5.172 0 00-3.998-.573 5.173 5.173 0 00-3.177 2.495 5.51 5.51 0 00-.494 4.1 5.507 5.507 0 002.478 3.303l1.248.747 9.158 5.48 5.191-9.325.707-1.27c.341-.613.56-1.29.645-1.994a5.57 5.57 0 00-1.073-4.006 5.438 5.438 0 00-1.556-1.404v0z" stroke="#CFD6E6" stroke-width="2.571" stroke-linecap="round" stroke-linejoin="round"/><path d="M211.143 98.395a7.1 7.1 0 00-2.489-1.286 6.915 6.915 0 00-5.397.689 7.103 7.103 0 00-2.087 1.869l-1.18 1.575-1.537-1.228a6.998 6.998 0 00-5.258-1.496 7 7 0 00-4.715 2.767 7.458 7.458 0 00-1.409 5.409 7.454 7.454 0 002.721 4.881l1.538 1.229 11.284 9.019 8.661-11.562 1.18-1.575a7.354 7.354 0 001.228-2.556 7.531 7.531 0 00-.71-5.569 7.354 7.354 0 00-1.83-2.166v0z" stroke="#CFD6E6" stroke-width="2.571" stroke-linecap="round" stroke-linejoin="round"/><path opacity=".7" d="M260.181-2.743a6.514 6.514 0 00-2.422-.862 6.35 6.35 0 00-4.824 1.292 6.525 6.525 0 00-1.667 1.958l-.878 1.578-1.55-.927a6.425 6.425 0 00-4.967-.71 6.423 6.423 0 00-3.945 3.098 6.843 6.843 0 00-.614 5.093 6.84 6.84 0 003.078 4.103l1.55.928 11.376 6.808 6.448-11.584.879-1.579a6.75 6.75 0 00.801-2.475A6.923 6.923 0 00262.113-1a6.761 6.761 0 00-1.932-1.744v0z" stroke="#CFD6E6" stroke-width="2.571" stroke-linecap="round" stroke-linejoin="round"/><path d="M7.743 111.692l-3.531-.946a2.436 2.436 0 01-1.724-2.985l2.208-8.24a2.438 2.438 0 012.985-1.724l3.532.946m8.87-.146l1.263-4.709a3.656 3.656 0 00-2.586-4.478l-7.547 9.333-3.47 12.949 13.279 3.558a2.434 2.434 0 002.89-1.37l4.463-10.16a2.434 2.434 0 00-.693-2.866 2.446 2.446 0 00-.935-.472l-6.663-1.785zm216.149-17.559l-5.196 3a4.002 4.002 0 01-5.465-1.464l-7-12.124a4 4 0 011.465-5.465l5.196-3m10.124-10.464l-4-6.928a6 6 0 00-8.196-2.196l2.072 19.588 11 19.053 19.537-11.28a4 4 0 001.764-4.944l-6.609-16.969a4.01 4.01 0 00-4.132-2.522 4 4 0 00-1.633.538l-9.803 5.66zm10.746 60.65l-4.079-1.092a2.816 2.816 0 01-1.99-3.448l2.55-9.516a2.815 2.815 0 013.447-1.99l4.078 1.093m10.245-.17l1.457-5.437a4.221 4.221 0 00-2.986-5.171l-8.716 10.778-4.006 14.953 15.334 4.109a2.814 2.814 0 003.338-1.582l5.154-11.732a2.817 2.817 0 00-.8-3.31 2.818 2.818 0 00-1.081-.546l-7.694-2.061z" stroke="#CFD6E6" stroke-width="2.571" stroke-linecap="round" stroke-linejoin="round"/><path opacity=".7" d="M186.817 87.123l-3.091 3.091a2.915 2.915 0 01-4.122 0l-7.214-7.213a2.917 2.917 0 010-4.122l3.092-3.092m5.152-9.274l-4.122-4.122a4.372 4.372 0 00-6.183 0l5.153 13.396 11.335 11.336 11.624-11.624a2.914 2.914 0 00.31-3.813l-7.853-10.697a2.91 2.91 0 00-3.383-.995c-.395.15-.753.384-1.048.686l-5.833 5.833z" stroke="#CFD6E6" stroke-width="2.571" stroke-linecap="round" stroke-linejoin="round"/><path d="M113.874 108.216l-2.924-1.288a2.131 2.131 0 01-1.091-2.809l3.006-6.824a2.127 2.127 0 012.808-1.09l2.925 1.288m7.683 1.056l1.718-3.9a3.198 3.198 0 00-1.637-4.213l-7.764 7.057-4.724 10.723 10.997 4.844a2.131 2.131 0 002.68-.798l5.21-8.182a2.141 2.141 0 00.236-1.773 2.141 2.141 0 00-1.198-1.328l-5.518-2.43z" stroke="#CFD6E6" stroke-width="2.571" stroke-linecap="round" stroke-linejoin="round"/><path opacity=".4" d="M194.944 37.194l-2.709-1.193a1.972 1.972 0 01-1.011-2.602l2.785-6.322a1.973 1.973 0 012.602-1.01l2.709 1.193m7.118.978l1.591-3.612a2.964 2.964 0 00-1.516-3.903l-7.193 6.537-4.376 9.934 10.188 4.488a1.972 1.972 0 002.482-.74l4.827-7.58a1.982 1.982 0 00.218-1.642 1.981 1.981 0 00-1.11-1.23l-5.111-2.252z" stroke="#CFD6E6" stroke-width="2.571" stroke-linecap="round" stroke-linejoin="round"/><path opacity=".7" d="M77.045 98.617l-2.443 1.41a1.883 1.883 0 01-2.569-.688l-3.29-5.7a1.88 1.88 0 01.688-2.569l2.443-1.41m4.76-4.92l-1.881-3.257a2.82 2.82 0 00-3.853-1.032l.974 9.209 5.171 8.957 9.185-5.303a1.88 1.88 0 00.83-2.325l-3.108-7.977a1.88 1.88 0 00-2.71-.933l-4.609 2.661z" stroke="#CFD6E6" stroke-width="2.571" stroke-linecap="round" stroke-linejoin="round"/></svg>