<svg width="285" height="77" fill="none" xmlns="http://www.w3.org/2000/svg"><path d="M13 76.044c15.477 0 16.524-10.659 33-10.659 32.5 0 21.5-18.385 43-7.885 18.324 8.949 25.256-34.82 39.235-34.82s13.48 8.077 32.452 8.077c18.971 0 16.813-17.25 27.958-16.899 7.988.253 10.984 23.714 25.462 23.714 14.479 0 11.982-33.318 33.95-33.57 12.98-.15 14.977 7.825 20.968 11.61 4.793 3.03 13.314 3.122 16.975 1.86" stroke="#CFD6E6" stroke-width="3"/><path opacity=".2" d="M1.097 78.268C5.33 77.178 9.82 75 21 75c14.398 0 18.71 3.268 31.838 3.268s14.016-5.52 27.99-5.52c27.568 0 24.569-13.832 35.172-9.748 14.63 5.635 24.324-12.327 36.181-12.327 11.858 0 11.434 4.183 27.526 4.183s16.939-8.882 23.715-8.752c6.776.131 9.317 12.28 21.597 12.28C237.3 58.385 239.772 41 253.816 41c8.858 0 12.704 4.052 17.786 6.013 4.065 1.568 11.293 1.617 14.398.963" stroke="#CFD6E6" stroke-width="3"/><circle cx="128" cy="22" r="4" fill="#CFD6E6"/><circle cx="79" cy="54" r="4" fill="#CFD6E6"/><circle cx="161" cy="31" r="4" fill="#CFD6E6"/><circle cx="214" cy="37" r="4" fill="#CFD6E6"/><circle cx="247" cy="4" r="4" fill="#CFD6E6"/><circle cx="187" cy="13" r="4" fill="#CFD6E6"/></svg>