<svg width="24" height="24" fill="none" xmlns="http://www.w3.org/2000/svg"><path d="M16.929 1H7.07A6.078 6.078 0 001 7.071v9.858A6.078 6.078 0 007.071 23h9.858A6.078 6.078 0 0023 16.93V7.07A6.078 6.078 0 0016.93 1zm4.12 15.929a4.124 4.124 0 01-4.12 4.12H7.07a4.124 4.124 0 01-4.119-4.12V7.07a4.124 4.124 0 014.12-4.119h9.857a4.124 4.124 0 014.12 4.12v9.857z" fill="#3C3E42"/><path d="M12 6.331a5.675 5.675 0 00-5.669 5.67A5.675 5.675 0 0012 17.668 5.675 5.675 0 0017.669 12a5.675 5.675 0 00-5.67-5.669zm0 9.386A3.721 3.721 0 018.283 12 3.721 3.721 0 0112 8.283 3.721 3.721 0 0115.717 12 3.721 3.721 0 0112 15.717zm5.907-11.041a1.438 1.438 0 00-1.431 1.431c0 .377.153.746.42 1.013.265.265.634.419 1.01.419.378 0 .746-.154 1.013-.419a1.44 1.44 0 00.419-1.012c0-.378-.152-.747-.419-1.013a1.438 1.438 0 00-1.012-.419z" fill="#3C3E42"/></svg>