<svg width="24" height="24" fill="none" xmlns="http://www.w3.org/2000/svg"><path d="M19.3 10.35c.024-2.896-2.442-5.55-5.498-5.918a3.845 3.845 0 01-.197-.03 2.858 2.858 0 00-.466-.05c-.626 0-.793.44-.837.702-.043.255-.002.47.12.637.208.282.573.332.866.372.086.012.167.023.235.039 2.746.613 3.67 1.578 4.122 4.3.011.067.016.149.022.236.02.325.06 1.002.788 1.002.061 0 .126-.005.194-.016.678-.103.656-.722.646-1.019a1.518 1.518 0 01.005-.255z" fill="#3C3E42"/><path d="M12.962 3.37c.081.005.158.01.222.02 4.509.694 6.582 2.83 7.157 7.374.01.078.011.172.013.272.006.355.017 1.093.81 1.109h.025c.249 0 .447-.075.588-.223.247-.259.23-.642.216-.95-.003-.076-.006-.147-.006-.21.058-4.647-3.965-8.862-8.608-9.018-.02 0-.038 0-.057.003a.39.39 0 01-.055.003c-.046 0-.103-.004-.163-.008-.073-.005-.156-.011-.24-.011-.74 0-.88.526-.898.839-.041.724.659.775.996.8zm7.161 13.267a14.943 14.943 0 01-.287-.224c-.493-.396-1.016-.76-1.523-1.114l-.315-.22c-.649-.456-1.232-.677-1.783-.677-.742 0-1.39.41-1.924 1.219-.236.358-.523.533-.877.533-.21 0-.447-.06-.707-.178-2.094-.95-3.59-2.406-4.444-4.328-.414-.929-.28-1.536.448-2.03.413-.28 1.182-.802 1.128-1.802-.062-1.135-2.567-4.55-3.622-4.939a2.056 2.056 0 00-1.398-.003c-1.213.407-2.084 1.124-2.518 2.07-.42.916-.4 1.99.055 3.108 1.316 3.232 3.167 6.05 5.501 8.374 2.285 2.276 5.092 4.14 8.345 5.541.294.127.601.195.826.246.076.017.142.031.19.045a.319.319 0 00.082.011h.025c1.53 0 3.368-1.398 3.932-2.992.494-1.396-.408-2.085-1.134-2.64zm-6.485-9.576c-.261.007-.807.02-.998.575-.09.26-.079.485.032.67.162.271.473.354.756.4 1.027.165 1.554.732 1.66 1.786.048.491.38.834.804.834a.789.789 0 00.095-.006c.511-.06.759-.436.737-1.115.008-.71-.363-1.514-.994-2.155-.634-.644-1.397-1.006-2.092-.989z" fill="#3C3E42"/></svg>