<svg width="24" height="24" fill="none" xmlns="http://www.w3.org/2000/svg"><g clip-path="url(#clip0)"><path d="M23.873 17.52a1.67 1.67 0 00-.082-.156c-.416-.75-1.212-1.67-2.386-2.762l-.025-.025-.012-.012-.013-.013h-.013c-.533-.508-.87-.85-1.012-1.025-.258-.333-.316-.67-.175-1.012.1-.258.475-.804 1.125-1.637.341-.441.612-.795.812-1.062 1.441-1.916 2.066-3.14 1.874-3.674l-.074-.124c-.05-.075-.18-.144-.387-.206-.209-.063-.475-.073-.8-.032l-3.599.025a.467.467 0 00-.25.007l-.163.037-.062.031-.05.038a.556.556 0 00-.137.131.86.86 0 00-.125.219 20.41 20.41 0 01-1.337 2.811 26.64 26.64 0 01-.85 1.344 6.422 6.422 0 01-.65.837 4.462 4.462 0 01-.475.43c-.141.11-.25.155-.324.138a9.456 9.456 0 01-.213-.05.832.832 0 01-.281-.306 1.37 1.37 0 01-.144-.487 5.39 5.39 0 01-.043-.506 9.925 9.925 0 01.006-.6c.009-.259.012-.433.012-.525 0-.317.007-.66.019-1.031l.031-.88c.009-.217.013-.447.013-.688 0-.242-.015-.431-.044-.569a1.949 1.949 0 00-.13-.4.674.674 0 00-.257-.3 1.443 1.443 0 00-.419-.168c-.441-.1-1.004-.154-1.687-.163-1.55-.016-2.545.084-2.986.3a1.683 1.683 0 00-.475.375c-.15.183-.171.283-.063.3.5.075.854.254 1.062.537l.075.15c.059.109.117.3.175.575a5.8 5.8 0 01.113.912 9.727 9.727 0 010 1.562c-.042.433-.081.77-.119 1.012a2.026 2.026 0 01-.169.588c-.075.15-.125.241-.15.274a.216.216 0 01-.062.063.938.938 0 01-.337.063c-.117 0-.259-.059-.425-.176a2.996 2.996 0 01-.519-.48 6.427 6.427 0 01-.606-.857 14.93 14.93 0 01-.7-1.3l-.2-.362a31.157 31.157 0 01-.512-1.018 19.632 19.632 0 01-.575-1.293.824.824 0 00-.3-.4l-.062-.038a.855.855 0 00-.2-.106 1.327 1.327 0 00-.287-.081L.8 5.78c-.35 0-.587.079-.712.237l-.05.075a.404.404 0 00-.038.2c0 .092.025.204.075.337a41.246 41.246 0 001.63 3.4c.588 1.09 1.098 1.97 1.531 2.636.433.666.875 1.295 1.325 1.887.45.591.748.97.893 1.137.146.167.26.291.344.375l.312.3c.2.2.494.439.881.718.388.28.817.554 1.287.825.471.27 1.019.491 1.644.662.624.17 1.233.24 1.824.206h1.437c.292-.025.512-.116.662-.275l.05-.062a.831.831 0 00.094-.231 1.24 1.24 0 00.044-.344c-.009-.358.018-.68.08-.968.063-.287.134-.504.213-.65a1.597 1.597 0 01.482-.55.816.816 0 01.1-.043c.2-.067.434-.002.706.194.27.195.524.437.762.724.237.288.522.61.856.969.333.358.625.624.874.8l.25.15c.167.1.384.191.65.274.266.084.5.104.7.063l3.199-.05c.316 0 .562-.052.737-.156.175-.105.279-.22.312-.344a.97.97 0 00.007-.425 1.578 1.578 0 00-.088-.331z" fill="#3C3E42"/></g><defs><clipPath id="clip0"><path fill="#fff" d="M0 0h24v24H0z"/></clipPath></defs></svg>