<svg width="24" height="24" fill="none" xmlns="http://www.w3.org/2000/svg"><path d="M17.279 13.641c-.043-.02-1.647-.81-1.932-.912a1.109 1.109 0 00-.373-.083c-.217 0-.399.108-.54.32-.16.238-.646.805-.796.974-.02.023-.046.05-.062.05-.014 0-.263-.103-.338-.136-1.72-.747-3.026-2.544-3.205-2.847-.026-.044-.027-.063-.027-.063a.515.515 0 01.094-.112c.087-.086.182-.2.274-.31.043-.052.086-.105.129-.154.133-.154.192-.274.26-.413l.036-.073a.748.748 0 00-.021-.704c-.038-.075-.716-1.71-.788-1.882-.173-.414-.401-.607-.72-.607-.029 0 0 0-.123.005-.15.007-.971.115-1.334.343-.384.243-1.035 1.016-1.035 2.375 0 1.224.776 2.379 1.11 2.818l.045.066c1.277 1.865 2.868 3.246 4.482 3.89 1.553.621 2.288.693 2.707.693.175 0 .316-.014.44-.026l.079-.008c.536-.047 1.716-.658 1.984-1.403.211-.588.267-1.229.126-1.462-.096-.158-.262-.238-.472-.339z" fill="#3C3E42"/><path d="M12.195 1C6.237 1 1.39 5.811 1.39 11.725c0 1.912.511 3.784 1.481 5.423l-1.856 5.475a.286.286 0 00.357.364l5.709-1.814a10.88 10.88 0 005.114 1.275c5.958 0 10.805-4.81 10.805-10.723C23 5.81 18.153 1 12.195 1zm0 19.214a8.56 8.56 0 01-4.71-1.404.286.286 0 00-.243-.034l-2.86.91.924-2.724a.286.286 0 00-.04-.26 8.374 8.374 0 01-1.63-4.978c0-4.681 3.84-8.49 8.56-8.49 4.718 0 8.557 3.809 8.557 8.49 0 4.682-3.839 8.49-8.558 8.49z" fill="#3C3E42"/></svg>