<svg width="24" height="24" fill="none" xmlns="http://www.w3.org/2000/svg"><path d="M6.644 8.426H2.62a.323.323 0 00-.323.324v12.927c0 .178.144.323.323.323h4.024a.323.323 0 00.323-.323V8.75a.323.323 0 00-.323-.324zM4.633 2a2.657 2.657 0 00-2.655 2.652 2.657 2.657 0 002.655 2.654 2.656 2.656 0 002.653-2.654A2.656 2.656 0 004.633 2zm12.246 6.105c-1.616 0-2.811.695-3.536 1.484v-.84a.323.323 0 00-.323-.323H9.166a.323.323 0 00-.323.324v12.927c0 .178.145.323.323.323h4.015a.323.323 0 00.324-.323V15.28c0-2.156.585-2.995 2.088-2.995 1.636 0 1.766 1.346 1.766 3.106v6.285c0 .178.145.323.323.323H21.7a.323.323 0 00.323-.323v-7.091c0-3.205-.611-6.481-5.143-6.481z" fill="#3C3E42"/></svg>