<?xml version="1.0" standalone="no"?>
<!DOCTYPE svg PUBLIC "-//W3C//DTD SVG 20010904//EN"
 "http://www.w3.org/TR/2001/REC-SVG-20010904/DTD/svg10.dtd">
<svg version="1.0" xmlns="http://www.w3.org/2000/svg"
 width="230.000000pt" height="230.000000pt" viewBox="0 0 230.000000 230.000000"
 preserveAspectRatio="xMidYMid meet">
<metadata>
Created by potrace 1.11, written by Peter Selinger 2001-2013
</metadata>
<g transform="translate(0.000000,230.000000) scale(0.100000,-0.100000)"
fill="#000000" stroke="none">
<path d="M39 2071 c-1 -3 -2 -336 -3 -738 -1 -481 2 -734 9 -736 5 -2 242 -3
525 -3 l515 1 1 138 1 137 -196 1 c-108 0 -274 0 -369 -1 l-172 -1 1 170 1
170 337 0 c185 0 346 1 359 1 22 0 22 2 22 138 l0 138 -357 -1 -358 0 -3 158
-3 157 369 0 369 0 -1 138 -1 137 -522 1 c-288 0 -524 -2 -524 -5z"/>
<path d="M1216 1658 c4 -6 72 -106 152 -222 80 -116 157 -229 172 -251 l27
-40 -128 -185 c-70 -102 -155 -224 -188 -272 -34 -48 -61 -89 -61 -91 0 -2 70
-3 155 -3 l154 1 83 120 c46 66 101 146 122 178 22 31 42 57 46 57 3 0 15 -15
26 -33 10 -18 63 -98 117 -177 l98 -145 155 0 c128 0 153 2 149 13 -5 14 -89
135 -283 410 -45 64 -81 124 -79 132 2 8 81 127 176 263 94 137 171 251 171
253 0 2 -70 4 -155 4 l-155 0 -17 -27 c-10 -16 -20 -30 -23 -33 -3 -3 -45 -65
-93 -138 l-88 -134 -42 60 c-23 33 -73 107 -112 166 l-70 106 -158 0 c-119 0
-156 -3 -151 -12z"/>
</g>
</svg>
