<svg width="288" height="108" viewBox="0 0 288 108" fill="none" xmlns="http://www.w3.org/2000/svg">
<mask id="mask0" mask-type="alpha" maskUnits="userSpaceOnUse" x="0" y="0" width="288" height="108">
<rect width="288" height="108" rx="11.9644" fill="white"/>
</mask>
<g mask="url(#mask0)">
<path d="M55.549 107.572C68.7756 107.572 69.6708 98.4625 83.7507 98.4625C111.525 98.4625 102.125 82.7507 120.499 91.724C136.158 99.3718 142.082 61.9668 154.029 61.9668C165.975 61.9668 165.549 68.8693 181.762 68.8693C197.975 68.8693 196.131 54.1269 205.655 54.4279C212.482 54.6436 215.042 74.6933 227.415 74.6933C239.788 74.6933 237.655 46.2204 256.428 46.0047C267.521 45.8772 269.228 52.6915 274.348 55.9271C278.444 58.5155 285.726 58.5949 288.855 57.5164" stroke="#E81E1E" stroke-width="2.5638"/>
<path opacity="0.2" d="M45.3763 109.472C48.9954 108.541 52.8315 106.679 62.3858 106.679C74.6905 106.679 78.3752 109.472 89.5942 109.472C100.813 109.472 101.573 104.755 113.515 104.755C137.074 104.755 134.512 92.9345 143.573 96.4242C156.075 101.239 164.36 85.8894 174.493 85.8894C184.627 85.8894 184.265 89.4641 198.017 89.4641C211.769 89.4641 212.493 81.8735 218.283 81.9852C224.074 82.0969 226.245 92.4802 236.741 92.4802C247.236 92.4802 249.348 77.6231 261.35 77.623C268.92 77.623 272.207 81.086 276.55 82.7616C280.024 84.1021 286.201 84.1432 288.855 83.5847" stroke="#E81E1E" stroke-width="2.5638"/>
<circle cx="153.828" cy="61.3857" r="3.4184" fill="#E81E1E"/>
<circle cx="111.953" cy="88.7328" r="3.4184" fill="#E81E1E"/>
<circle cx="182.03" cy="69.0771" r="3.4184" fill="#E81E1E"/>
<circle cx="227.323" cy="74.2048" r="3.4184" fill="#E81E1E"/>
<circle cx="255.525" cy="46.0029" r="3.4184" fill="#E81E1E"/>
<circle cx="204.249" cy="53.6943" r="3.4184" fill="#E81E1E"/>
</g>
</svg>
