<svg width="115" height="18" viewBox="0 0 115 18" fill="none" xmlns="http://www.w3.org/2000/svg">
<path d="M9.76 14H0.32V0.659999H9.76V3.16H3.16V5.98H9.62V8.48H3.16V11.5H9.76V14ZM20.7402 14H17.9002L15.7002 10.74L13.4802 14H10.6602L14.0802 9.04L10.8602 4.34H13.7002L15.7002 7.32L17.6802 4.34H20.5202L17.2802 9.04L20.7402 14ZM27.5183 14.24C26.3049 14.24 25.3116 13.7467 24.5383 12.76V17.68H21.9983V4.34H24.5383V5.56C25.2983 4.58667 26.2916 4.1 27.5183 4.1C28.7849 4.1 29.8116 4.55333 30.5983 5.46C31.3983 6.35333 31.7983 7.58667 31.7983 9.16C31.7983 10.7333 31.3983 11.9733 30.5983 12.88C29.8116 13.7867 28.7849 14.24 27.5183 14.24ZM26.7183 11.98C27.4516 11.98 28.0383 11.72 28.4783 11.2C28.9316 10.68 29.1583 10 29.1583 9.16C29.1583 8.33333 28.9316 7.66 28.4783 7.14C28.0383 6.62 27.4516 6.36 26.7183 6.36C26.3049 6.36 25.8916 6.46667 25.4783 6.68C25.0649 6.89333 24.7516 7.15333 24.5383 7.46V10.88C24.7516 11.1867 25.0649 11.4467 25.4783 11.66C25.9049 11.8733 26.3183 11.98 26.7183 11.98ZM38.1984 14.24C36.7051 14.24 35.4718 13.7733 34.4984 12.84C33.5251 11.9067 33.0384 10.68 33.0384 9.16C33.0384 7.73333 33.5051 6.53333 34.4384 5.56C35.3851 4.58667 36.5851 4.1 38.0384 4.1C39.4784 4.1 40.6451 4.59333 41.5384 5.58C42.4318 6.55333 42.8784 7.83333 42.8784 9.42V9.98H35.6984C35.7784 10.62 36.0651 11.1533 36.5584 11.58C37.0518 12.0067 37.6918 12.22 38.4784 12.22C38.9051 12.22 39.3651 12.1333 39.8584 11.96C40.3651 11.7867 40.7651 11.5533 41.0584 11.26L42.1784 12.9C41.2051 13.7933 39.8784 14.24 38.1984 14.24ZM40.4184 8.26C40.3784 7.71333 40.1584 7.22 39.7584 6.78C39.3718 6.34 38.7984 6.12 38.0384 6.12C37.3184 6.12 36.7584 6.34 36.3584 6.78C35.9584 7.20667 35.7251 7.7 35.6584 8.26H40.4184ZM47.2531 14H44.7131V4.34H47.2531V5.66C47.6131 5.20667 48.0731 4.83333 48.6331 4.54C49.1931 4.24667 49.7598 4.1 50.3331 4.1V6.58C50.1598 6.54 49.9265 6.52 49.6331 6.52C49.2065 6.52 48.7531 6.62667 48.2731 6.84C47.7931 7.05333 47.4531 7.31333 47.2531 7.62V14ZM55.1602 14.24C54.2668 14.24 53.5868 14.0133 53.1202 13.56C52.6535 13.1067 52.4202 12.4533 52.4202 11.6V6.56H50.8202V4.34H52.4202V1.7H54.9802V4.34H56.9402V6.56H54.9802V10.92C54.9802 11.2267 55.0602 11.48 55.2202 11.68C55.3802 11.88 55.5935 11.98 55.8602 11.98C56.2602 11.98 56.5535 11.8867 56.7402 11.7L57.2802 13.62C56.8135 14.0333 56.1068 14.24 55.1602 14.24Z" fill="#E81E1E"/>
<path d="M64.678 14H61.818V3.16H57.918V0.659999H68.558V3.16H64.678V14ZM77.0961 14H74.5561V13C73.8628 13.8267 72.8428 14.24 71.4961 14.24C70.6294 14.24 69.8494 13.96 69.1561 13.4C68.4761 12.8267 68.1361 12.04 68.1361 11.04C68.1361 10 68.4694 9.22 69.1361 8.7C69.8161 8.18 70.6028 7.92 71.4961 7.92C72.8694 7.92 73.8894 8.31333 74.5561 9.1V7.8C74.5561 7.30667 74.3628 6.91333 73.9761 6.62C73.5894 6.32667 73.0761 6.18 72.4361 6.18C71.3828 6.18 70.4428 6.56 69.6161 7.32L68.6561 5.62C69.8028 4.60667 71.2094 4.1 72.8761 4.1C74.1161 4.1 75.1294 4.38667 75.9161 4.96C76.7028 5.53333 77.0961 6.46667 77.0961 7.76V14ZM72.5161 12.52C73.4628 12.52 74.1428 12.24 74.5561 11.68V10.48C74.1428 9.92 73.4628 9.64 72.5161 9.64C71.9961 9.64 71.5628 9.77333 71.2161 10.04C70.8694 10.2933 70.6961 10.6467 70.6961 11.1C70.6961 11.54 70.8694 11.8867 71.2161 12.14C71.5628 12.3933 71.9961 12.52 72.5161 12.52ZM82.1555 14H79.6155V4.34H82.1555V5.66C82.5155 5.20667 82.9755 4.83333 83.5355 4.54C84.0955 4.24667 84.6621 4.1 85.2355 4.1V6.58C85.0621 6.54 84.8288 6.52 84.5355 6.52C84.1088 6.52 83.6555 6.62667 83.1755 6.84C82.6955 7.05333 82.3555 7.31333 82.1555 7.62V14ZM90.7825 17.92C89.1158 17.92 87.7292 17.44 86.6225 16.48L87.7625 14.64C88.4825 15.44 89.4892 15.84 90.7825 15.84C91.5025 15.84 92.1225 15.6467 92.6425 15.26C93.1758 14.8867 93.4425 14.2667 93.4425 13.4V12.42C92.6425 13.4333 91.6492 13.94 90.4625 13.94C89.2092 13.94 88.1825 13.5133 87.3825 12.66C86.5958 11.7933 86.2025 10.58 86.2025 9.02C86.2025 7.47333 86.5958 6.26667 87.3825 5.4C88.1825 4.53333 89.2092 4.1 90.4625 4.1C91.6625 4.1 92.6558 4.59333 93.4425 5.58V4.34H96.0025V13.34C96.0025 14.22 95.8425 14.9733 95.5225 15.6C95.2158 16.2267 94.7958 16.7 94.2625 17.02C93.7292 17.34 93.1758 17.5667 92.6025 17.7C92.0425 17.8467 91.4358 17.92 90.7825 17.92ZM91.2625 11.68C91.6758 11.68 92.0892 11.5733 92.5025 11.36C92.9158 11.1467 93.2292 10.8867 93.4425 10.58V7.46C93.2292 7.14 92.9158 6.88 92.5025 6.68C92.1025 6.46667 91.6892 6.36 91.2625 6.36C90.5292 6.36 89.9358 6.6 89.4825 7.08C89.0425 7.56 88.8225 8.20667 88.8225 9.02C88.8225 9.83333 89.0425 10.48 89.4825 10.96C89.9358 11.44 90.5292 11.68 91.2625 11.68ZM103.062 14.24C101.568 14.24 100.335 13.7733 99.3617 12.84C98.3884 11.9067 97.9017 10.68 97.9017 9.16C97.9017 7.73333 98.3684 6.53333 99.3017 5.56C100.248 4.58667 101.448 4.1 102.902 4.1C104.342 4.1 105.508 4.59333 106.402 5.58C107.295 6.55333 107.742 7.83333 107.742 9.42V9.98H100.562C100.642 10.62 100.928 11.1533 101.422 11.58C101.915 12.0067 102.555 12.22 103.342 12.22C103.768 12.22 104.228 12.1333 104.722 11.96C105.228 11.7867 105.628 11.5533 105.922 11.26L107.042 12.9C106.068 13.7933 104.742 14.24 103.062 14.24ZM105.282 8.26C105.242 7.71333 105.022 7.22 104.622 6.78C104.235 6.34 103.662 6.12 102.902 6.12C102.182 6.12 101.622 6.34 101.222 6.78C100.822 7.20667 100.588 7.7 100.522 8.26H105.282ZM112.816 14.24C111.923 14.24 111.243 14.0133 110.776 13.56C110.31 13.1067 110.076 12.4533 110.076 11.6V6.56H108.476V4.34H110.076V1.7H112.636V4.34H114.596V6.56H112.636V10.92C112.636 11.2267 112.716 11.48 112.876 11.68C113.036 11.88 113.25 11.98 113.516 11.98C113.916 11.98 114.21 11.8867 114.396 11.7L114.936 13.62C114.47 14.0333 113.763 14.24 112.816 14.24Z" fill="black"/>
</svg>
