<svg width="48" height="48" viewBox="0 0 48 48" fill="none" xmlns="http://www.w3.org/2000/svg">
<path d="M23.999 0C10.7459 0 0 10.7459 0 23.999C0 37.2521 10.7459 48 23.999 48C37.2521 48 48 37.2521 48 23.999C48 10.7459 37.2521 0 23.999 0ZM28.995 37.1952C27.7597 37.6828 26.7764 38.0526 26.0389 38.3086C25.3034 38.5646 24.448 38.6926 23.4748 38.6926C21.9794 38.6926 20.8152 38.3269 19.9863 37.5975C19.1573 36.8681 18.7449 35.9436 18.7449 34.8201C18.7449 34.3832 18.7754 33.9363 18.8363 33.4811C18.8993 33.026 18.9989 32.514 19.135 31.9391L20.6811 26.4777C20.8173 25.9535 20.9351 25.4557 21.0286 24.9925C21.122 24.5252 21.1667 24.0965 21.1667 23.7064C21.1667 23.0116 21.0225 22.5239 20.736 22.2497C20.4455 21.9754 19.8989 21.8413 19.0842 21.8413C18.686 21.8413 18.2756 21.9002 17.855 22.0241C17.4385 22.1521 17.0768 22.2679 16.7802 22.3817L17.1886 20.6994C18.2004 20.287 19.1695 19.9335 20.094 19.6409C21.0184 19.3443 21.8921 19.198 22.7149 19.198C24.2001 19.198 25.346 19.5596 26.1526 20.2748C26.9552 20.992 27.3595 21.9246 27.3595 23.0705C27.3595 23.3082 27.331 23.7267 27.2762 24.3241C27.2213 24.9234 27.1177 25.47 26.9674 25.9718L25.4293 31.4169C25.3034 31.8537 25.1916 32.3535 25.09 32.9123C24.9905 33.471 24.9417 33.8977 24.9417 34.1841C24.9417 34.9074 25.1022 35.4011 25.4273 35.6632C25.7483 35.9253 26.3111 36.0574 27.1076 36.0574C27.4834 36.0574 27.904 35.9903 28.3794 35.8603C28.8508 35.7303 29.1921 35.6145 29.4075 35.5149L28.995 37.1952ZM28.7228 15.0938C28.0056 15.7603 27.1421 16.0935 26.1323 16.0935C25.1246 16.0935 24.255 15.7603 23.5317 15.0938C22.8124 14.4274 22.4488 13.6168 22.4488 12.67C22.4488 11.7252 22.8145 10.9125 23.5317 10.24C24.255 9.56546 25.1246 9.23022 26.1323 9.23022C27.1421 9.23022 28.0076 9.56546 28.7228 10.24C29.44 10.9125 29.7996 11.7252 29.7996 12.67C29.7996 13.6188 29.44 14.4274 28.7228 15.0938Z" fill="#CFD6E6"/>
</svg>
