<svg width="285" height="77" viewBox="0 0 285 77" fill="none" xmlns="http://www.w3.org/2000/svg">
<path d="M13 76.0441C28.477 76.0441 29.5245 65.385 46 65.385C78.5 65.385 67.5 47 89 57.5C107.324 66.449 114.256 22.68 128.235 22.68C142.214 22.68 141.715 30.7568 160.687 30.7568C179.658 30.7568 177.5 13.5062 188.645 13.8583C196.633 14.1107 199.629 37.5717 214.107 37.5717C228.586 37.5717 226.089 4.25443 248.057 4.00206C261.037 3.85294 263.034 11.8266 269.025 15.6126C273.818 18.6415 282.339 18.7343 286 17.4723" stroke="#CFD6E6" stroke-width="3"/>
<path opacity="0.2" d="M1.09668 78.2679C5.33145 77.1786 9.8203 75 21.0001 75C35.3983 75 39.71 78.2679 52.8377 78.2679C65.9655 78.2679 66.8541 72.7477 80.8288 72.7477C108.396 72.7477 105.397 58.9165 116 63C130.63 68.6345 140.324 50.6728 152.181 50.6728C164.039 50.6728 163.615 54.8557 179.707 54.8557C195.799 54.8557 196.646 45.9736 203.422 46.1043C210.198 46.235 212.739 58.3849 225.019 58.3849C237.3 58.3849 239.772 41.0001 253.816 41C262.674 40.9999 266.52 45.0521 271.602 47.0128C275.667 48.5814 282.895 48.6295 286 47.9759" stroke="#CFD6E6" stroke-width="3"/>
<circle cx="128" cy="22" r="4" fill="#CFD6E6"/>
<circle cx="79" cy="54" r="4" fill="#CFD6E6"/>
<circle cx="161" cy="31" r="4" fill="#CFD6E6"/>
<circle cx="214" cy="37" r="4" fill="#CFD6E6"/>
<circle cx="247" cy="4" r="4" fill="#CFD6E6"/>
<circle cx="187" cy="13" r="4" fill="#CFD6E6"/>
</svg>
