<svg width="275" height="108" viewBox="0 0 275 108"  xmlns="http://www.w3.org/2000/svg">
<path opacity="0.7" d="M146.915 61.9322C146.314 61.5721 145.652 61.3363 144.966 61.238C144.279 61.1398 143.583 61.1811 142.917 61.3596C142.251 61.5382 141.627 61.8504 141.082 62.2785C140.537 62.7066 140.082 63.2422 139.741 63.8546L139.034 65.1252L137.786 64.3785C136.571 63.6517 135.133 63.4459 133.788 63.8064C132.442 64.167 131.3 65.0642 130.611 66.3009C129.923 67.5376 129.745 69.0123 130.117 70.4007C130.489 71.7891 131.38 72.9774 132.595 73.7042L133.843 74.4509L143.001 79.9317L148.192 70.606L148.899 69.3354C149.24 68.7232 149.459 68.0459 149.544 67.3424C149.629 66.639 149.578 65.923 149.394 65.2355C149.21 64.548 148.896 63.9024 148.471 63.3356C148.045 62.7688 147.517 62.2919 146.915 61.9322V61.9322Z" stroke="#CFD6E6" stroke-width="2.57143" stroke-linecap="round" stroke-linejoin="round"/>
<path d="M211.143 98.3954C210.402 97.803 209.556 97.366 208.654 97.1093C207.752 96.8526 206.811 96.7812 205.885 96.8993C204.959 97.0174 204.066 97.3226 203.257 97.7975C202.448 98.2724 201.739 98.9076 201.17 99.667L199.99 101.242L198.453 100.014C196.956 98.8175 195.065 98.2796 193.195 98.5181C191.324 98.7565 189.629 99.7519 188.48 101.285C187.332 102.818 186.825 104.764 187.071 106.694C187.317 108.623 188.296 110.38 189.792 111.575L191.33 112.804L202.614 121.823L211.275 110.261L212.455 108.686C213.024 107.927 213.441 107.058 213.683 106.13C213.925 105.202 213.987 104.233 213.865 103.277C213.743 102.322 213.44 101.399 212.973 100.561C212.506 99.7233 211.884 98.9875 211.143 98.3954V98.3954Z" stroke="#CFD6E6" stroke-width="2.57143" stroke-linecap="round" stroke-linejoin="round"/>
<path opacity="0.7" d="M260.181 -2.74293C259.434 -3.19017 258.611 -3.48318 257.759 -3.60522C256.906 -3.72725 256.042 -3.67592 255.214 -3.45416C254.386 -3.23239 253.612 -2.84454 252.935 -2.31276C252.258 -1.78098 251.692 -1.11569 251.268 -0.3549L250.39 1.22342L248.84 0.295823C247.331 -0.607004 245.545 -0.862611 243.873 -0.414768C242.202 0.0330747 240.783 1.14768 239.928 2.68386C239.073 4.22003 238.852 6.05193 239.314 7.77656C239.776 9.50119 240.883 10.9773 242.392 11.8801L243.942 12.8077L255.318 19.6159L261.766 8.03165L262.645 6.45333C263.068 5.69274 263.341 4.8515 263.446 3.97765C263.552 3.1038 263.488 2.21446 263.259 1.36045C263.03 0.506446 262.641 -0.295501 262.113 -0.999573C261.584 -1.70365 260.928 -2.29605 260.181 -2.74293V-2.74293Z" stroke="#CFD6E6" stroke-width="2.57143" stroke-linecap="round" stroke-linejoin="round"/>
<path d="M7.74306 111.692L4.21154 110.746C3.58713 110.579 3.05475 110.17 2.73154 109.61C2.40832 109.05 2.32073 108.385 2.48804 107.761L4.696 99.5204C4.86331 98.896 5.27181 98.3637 5.83165 98.0404C6.39148 97.7172 7.05678 97.6296 7.68119 97.7969L11.2127 98.7432M20.0838 98.5968L21.3455 93.8881C21.5964 92.9515 21.4651 91.9536 20.9802 91.1138C20.4954 90.2741 19.6968 89.6613 18.7602 89.4103L11.2127 98.7432L7.74306 111.692L21.0216 115.25C21.5877 115.409 22.1919 115.357 22.7231 115.105C23.2543 114.854 23.6766 114.418 23.9122 113.88L28.3755 103.72C28.5171 103.397 28.5866 103.046 28.5793 102.693C28.572 102.34 28.4879 101.992 28.333 101.675C28.178 101.357 27.9559 101.077 27.682 100.854C27.4081 100.631 27.0889 100.47 26.7466 100.382L20.0838 98.5968Z" stroke="#CFD6E6" stroke-width="2.57143" stroke-linecap="round" stroke-linejoin="round"/>
<path d="M236.232 81.038L231.036 84.038C230.117 84.5684 229.025 84.7122 228 84.4376C226.976 84.163 226.102 83.4926 225.571 82.5739L218.571 70.4495C218.041 69.5308 217.897 68.439 218.172 67.4143C218.446 66.3895 219.117 65.5159 220.036 64.9854L225.232 61.9854M235.356 51.5213L231.356 44.5931C230.56 43.215 229.25 42.2094 227.713 41.7976C226.176 41.3857 224.538 41.6013 223.16 42.397L225.232 61.9854L236.232 81.038L255.769 69.758C256.61 69.2851 257.252 68.5243 257.576 67.6156C257.9 66.707 257.885 65.7119 257.533 64.8135L250.924 47.845C250.712 47.3051 250.386 46.8175 249.968 46.416C249.549 46.0146 249.048 45.709 248.5 45.5203C247.952 45.3316 247.369 45.2644 246.792 45.3232C246.215 45.3821 245.658 45.5657 245.159 45.8613L235.356 51.5213Z" stroke="#CFD6E6" stroke-width="2.57143" stroke-linecap="round" stroke-linejoin="round"/>
<path d="M246.102 112.171L242.023 111.079C241.302 110.885 240.687 110.414 240.314 109.767C239.941 109.121 239.84 108.352 240.033 107.631L242.583 98.1153C242.776 97.3942 243.248 96.7794 243.894 96.4062C244.541 96.0329 245.309 95.9317 246.03 96.125L250.108 97.2177M260.353 97.0487L261.81 91.611C262.1 90.5294 261.948 89.3769 261.388 88.4071C260.828 87.4374 259.906 86.7298 258.824 86.4399L250.108 97.2177L246.102 112.171L261.436 116.28C262.09 116.463 262.787 116.404 263.401 116.113C264.014 115.822 264.502 115.32 264.774 114.698L269.928 102.966C270.092 102.592 270.172 102.187 270.164 101.779C270.155 101.371 270.058 100.97 269.879 100.603C269.7 100.236 269.444 99.9128 269.128 99.6551C268.811 99.3974 268.443 99.2115 268.047 99.1104L260.353 97.0487Z" stroke="#CFD6E6" stroke-width="2.57143" stroke-linecap="round" stroke-linejoin="round"/>
<path opacity="0.7" d="M186.817 87.1228L183.726 90.2143C183.179 90.7609 182.438 91.068 181.665 91.068C180.892 91.068 180.15 90.7609 179.604 90.2143L172.39 83.0008C171.844 82.4542 171.537 81.7128 171.537 80.9398C171.537 80.1668 171.844 79.4254 172.39 78.8788L175.482 75.7873M180.634 66.5128L176.512 62.3908C175.692 61.5709 174.58 61.1102 173.421 61.1102C172.261 61.1102 171.149 61.5709 170.329 62.3908L175.482 75.7873L186.817 87.1228L198.441 75.4987C198.944 75.0073 199.252 74.3508 199.309 73.6501C199.366 72.9495 199.167 72.2519 198.751 71.6859L190.898 60.9893C190.648 60.6491 190.326 60.3674 189.956 60.1638C189.586 59.9602 189.176 59.8395 188.754 59.8101C188.333 59.7806 187.91 59.8432 187.515 59.9935C187.12 60.1437 186.762 60.378 186.467 60.6801L180.634 66.5128Z" stroke="#CFD6E6" stroke-width="2.57143" stroke-linecap="round" stroke-linejoin="round"/>
<path d="M113.874 108.216L110.95 106.928C110.433 106.7 110.027 106.276 109.823 105.75C109.618 105.223 109.631 104.637 109.859 104.119L112.865 97.2953C113.092 96.7782 113.516 96.3727 114.043 96.1681C114.57 95.9635 115.156 95.9766 115.673 96.2043L118.598 97.4926M126.281 98.5486L127.999 94.6491C128.34 93.8734 128.36 92.9938 128.053 92.2037C127.746 91.4137 127.138 90.7779 126.362 90.4362L118.598 97.4926L113.874 108.216L124.871 113.06C125.339 113.272 125.868 113.309 126.36 113.162C126.853 113.015 127.276 112.695 127.551 112.262L132.761 104.08C132.926 103.819 133.033 103.526 133.074 103.22C133.115 102.913 133.089 102.602 132.997 102.307C132.905 102.012 132.751 101.741 132.544 101.511C132.337 101.282 132.083 101.1 131.799 100.979L126.281 98.5486Z" stroke="#CFD6E6" stroke-width="2.57143" stroke-linecap="round" stroke-linejoin="round"/>
<path opacity="0.4" d="M194.944 37.1944L192.235 36.001C191.756 35.79 191.38 35.3973 191.191 34.9094C191.001 34.4214 191.013 33.8782 191.224 33.3991L194.009 27.0772C194.22 26.5982 194.612 26.2226 195.1 26.033C195.588 25.8435 196.132 25.8556 196.611 26.0666L199.32 27.26M206.438 28.2383L208.029 24.6258C208.345 23.9073 208.363 23.0924 208.079 22.3605C207.795 21.6285 207.231 21.0395 206.513 20.723L199.32 27.26L194.944 37.1944L205.132 41.6816C205.565 41.8784 206.055 41.9119 206.511 41.776C206.967 41.64 207.359 41.3438 207.614 40.9419L212.441 33.3627C212.594 33.1211 212.693 32.8491 212.731 32.5655C212.768 32.2819 212.744 31.9935 212.659 31.7202C212.574 31.4469 212.431 31.1954 212.24 30.9829C212.048 30.7705 211.812 30.6023 211.549 30.4899L206.438 28.2383Z" stroke="#CFD6E6" stroke-width="2.57143" stroke-linecap="round" stroke-linejoin="round"/>
<path opacity="0.7" d="M77.045 98.6166L74.6023 100.027C74.1703 100.276 73.6571 100.344 73.1753 100.215C72.6936 100.086 72.2829 99.7705 72.0335 99.3386L68.7427 93.6388C68.4933 93.2069 68.4258 92.6936 68.5548 92.2118C68.6839 91.7301 68.9991 91.3194 69.431 91.07L71.8738 89.6597M76.6334 84.7403L74.7529 81.4833C74.3789 80.8354 73.7628 80.3627 73.0402 80.1691C72.3176 79.9754 71.5477 80.0768 70.8998 80.4508L71.8738 89.6597L77.045 98.6166L86.2299 93.3137C86.6252 93.0914 86.9269 92.7337 87.0793 92.3065C87.2317 91.8794 87.2246 91.4115 87.0593 90.9892L83.9519 83.0121C83.8526 82.7582 83.6992 82.529 83.5025 82.3403C83.3058 82.1516 83.0704 82.0079 82.8127 81.9192C82.5549 81.8305 82.2809 81.7988 82.0098 81.8265C81.7386 81.8542 81.4766 81.9405 81.2421 82.0795L76.6334 84.7403Z" stroke="#CFD6E6" stroke-width="2.57143" stroke-linecap="round" stroke-linejoin="round"/>
</svg>
