<svg width="267" height="108" viewBox="0 0 267 108" fill="none" xmlns="http://www.w3.org/2000/svg">
<path opacity="0.7" d="M165.739 52.1306L168.38 57.4804L174.285 58.3436L170.012 62.5055L171.02 68.3851L165.739 65.6076L160.457 68.3851L161.466 62.5055L157.193 58.3436L163.098 57.4804L165.739 52.1306Z" stroke="#CFD6E6" stroke-width="2.5638" stroke-linecap="round" stroke-linejoin="round"/>
<path d="M253.549 97.3753L253.015 106.486L260.284 112.202L251.376 114.386L248.247 122.931L243.275 115.171L234.068 114.745L239.904 107.763L237.341 98.956L245.926 102.393L253.549 97.3753Z" stroke="#CFD6E6" stroke-width="2.5638" stroke-linecap="round" stroke-linejoin="round"/>
<path opacity="0.7" d="M251.988 -3.63198L251.454 5.47864L258.723 11.195L249.814 13.3789L246.686 21.9242L241.714 14.1636L232.507 13.738L238.343 6.75578L235.78 -2.05133L244.365 1.38554L251.988 -3.63198Z" stroke="#CFD6E6" stroke-width="2.5638" stroke-linecap="round" stroke-linejoin="round"/>
<path opacity="0.7" d="M107.978 77.4822L107.587 84.1419L112.901 88.3204L106.389 89.9168L104.102 96.1632L100.467 90.4904L93.7374 90.1792L98.0034 85.0754L96.1299 78.6377L102.405 81.1499L107.978 77.4822Z" stroke="#CFD6E6" stroke-width="2.5638" stroke-linecap="round" stroke-linejoin="round"/>
<path d="M19.9539 95.429L19.5638 102.089L24.8771 106.267L18.3651 107.864L16.0781 114.11L12.4436 108.437L5.71365 108.126L9.97964 103.022L8.10618 96.5844L14.3815 99.0967L19.9539 95.429Z" stroke="#CFD6E6" stroke-width="2.5638" stroke-linecap="round" stroke-linejoin="round"/>
<path d="M244.275 51.9142C243.919 52.5257 244.125 53.3106 244.737 53.6674C245.348 54.0242 246.133 53.8177 246.49 53.2062L244.275 51.9142ZM249.236 48.4997C249.593 47.8882 249.386 47.1032 248.775 46.7464C248.163 46.3896 247.378 46.5961 247.022 47.2076L249.236 48.4997ZM249.325 57.7572C248.641 57.9404 248.236 58.6433 248.419 59.3272C248.602 60.011 249.305 60.4168 249.989 60.2336L249.325 57.7572ZM255.087 58.8674C255.771 58.6842 256.177 57.9813 255.994 57.2974C255.811 56.6136 255.108 56.2078 254.424 56.391L255.087 58.8674ZM249.718 65.2557C249.104 64.9046 248.321 65.1182 247.969 65.733C247.618 66.3477 247.832 67.1308 248.447 67.4819L249.718 65.2557ZM253.178 70.1848C253.793 70.536 254.576 70.3223 254.927 69.7076C255.278 69.0928 255.065 68.3098 254.45 67.9586L253.178 70.1848ZM208.506 77.6023L211.34 88.1787L213.816 87.5152L210.982 76.9388L208.506 77.6023ZM220.954 85.6026L218.12 75.0261L215.644 75.6897L218.478 86.2661L220.954 85.6026ZM215.506 55.2677L204.595 58.1913L205.259 60.6677L216.17 57.7441L215.506 55.2677ZM209.705 78.6082L220.953 75.5943L220.289 73.1179L209.041 76.1317L209.705 78.6082ZM221.859 74.0243L217.076 56.1741L214.6 56.8377L219.383 74.6879L221.859 74.0243ZM220.788 75.6271C224.196 75.18 230.692 75.0595 236.078 78.6685L237.506 76.5386C231.347 72.4118 224.085 72.6088 220.454 73.0851L220.788 75.6271ZM216.329 57.69C219.651 56.3124 226.173 53.1958 229.46 46.5102L227.159 45.3793C224.315 51.1656 218.583 53.9798 215.347 55.3218L216.329 57.69ZM227.17 46.6475L235.454 77.5644L237.931 76.9008L229.647 45.984L227.17 46.6475ZM245.409 74.8971L237.125 43.9803L234.648 44.6438L242.932 75.5607L245.409 74.8971ZM201.883 62.8887L200.134 63.3575L200.797 65.8339L202.547 65.3652L201.883 62.8887ZM200.977 64.4587L203.864 75.2362L206.341 74.5726L203.453 63.7952L200.977 64.4587ZM203.685 76.6114L205.434 76.1426L204.771 73.6662L203.022 74.1349L203.685 76.6114ZM246.49 53.2062L249.236 48.4997L247.022 47.2076L244.275 51.9142L246.49 53.2062ZM249.989 60.2336L255.087 58.8674L254.424 56.391L249.325 57.7572L249.989 60.2336ZM248.447 67.4819L253.178 70.1848L254.45 67.9586L249.718 65.2557L248.447 67.4819ZM200.134 63.3575C196.474 64.3381 194.302 68.1001 195.283 71.7601L197.759 71.0965C197.145 68.8043 198.505 66.4481 200.797 65.8339L200.134 63.3575ZM235.454 77.5644C236.191 80.3132 239.016 81.9444 241.765 81.2079L241.102 78.7315C239.72 79.1015 238.301 78.2819 237.931 76.9008L235.454 77.5644ZM229.647 45.984C229.277 44.6029 230.096 43.1833 231.477 42.8132L230.814 40.3367C228.065 41.0733 226.434 43.8987 227.17 46.6475L229.647 45.984ZM195.283 71.7601C196.263 75.4201 200.025 77.592 203.685 76.6114L203.022 74.1349C200.729 74.7491 198.373 73.3888 197.759 71.0965L195.283 71.7601ZM204.595 58.1913C201.865 58.9228 200.245 61.7288 200.977 64.4587L203.453 63.7952C203.088 62.433 203.896 61.0328 205.259 60.6677L204.595 58.1913ZM237.125 43.9803C236.388 41.2315 233.563 39.6002 230.814 40.3367L231.477 42.8132C232.858 42.4431 234.278 43.2627 234.648 44.6438L237.125 43.9803ZM217.435 91.6979C220.09 90.9865 221.666 88.2575 220.954 85.6026L218.478 86.2661C218.823 87.5534 218.059 88.8765 216.771 89.2214L217.435 91.6979ZM209.041 76.1317C207.865 76.4469 206.656 75.7489 206.341 74.5726L203.864 75.2362C204.546 77.7801 207.161 79.2898 209.705 78.6082L209.041 76.1317ZM241.765 81.2079C244.514 80.4714 246.145 77.6459 245.409 74.8971L242.932 75.5607C243.302 76.9418 242.483 78.3614 241.102 78.7315L241.765 81.2079ZM211.34 88.1787C212.051 90.8337 214.78 92.4093 217.435 91.6979L216.771 89.2214C215.484 89.5663 214.161 88.8024 213.816 87.5152L211.34 88.1787Z" fill="#CFD6E6"/>
<path opacity="0.7" d="M175.803 20.7239C176.16 21.3354 175.953 22.1203 175.342 22.4771C174.731 22.8339 173.946 22.6275 173.589 22.016L175.803 20.7239ZM171.955 19.2164C171.598 18.6049 171.805 17.8199 172.416 17.4631C173.028 17.1063 173.813 17.3128 174.17 17.9243L171.955 19.2164ZM172.485 23.9595C173.169 24.1427 173.575 24.8457 173.392 25.5295C173.208 26.2134 172.505 26.6192 171.822 26.4359L172.485 23.9595ZM168.789 25.6233C168.105 25.4401 167.699 24.7372 167.882 24.0533C168.066 23.3695 168.769 22.9636 169.452 23.1469L168.789 25.6233ZM171.859 28.4706C172.474 28.1194 173.257 28.3331 173.608 28.9478C173.959 29.5625 173.746 30.3456 173.131 30.6967L171.859 28.4706ZM170.316 32.3045C169.702 32.6557 168.919 32.442 168.568 31.8272C168.216 31.2125 168.43 30.4295 169.045 30.0783L170.316 32.3045ZM197.133 36.4L195.447 42.6912L192.971 42.0276L194.656 35.7365L197.133 36.4ZM188.725 40.8899L190.411 34.5988L192.887 35.2624L191.201 41.5535L188.725 40.8899ZM192.602 22.4787L199.092 24.2177L198.428 26.6942L191.938 24.9551L192.602 22.4787ZM195.784 37.3656L189.093 35.5729L189.757 33.0964L196.447 34.8892L195.784 37.3656ZM188.187 34.0029L191.032 23.3851L193.508 24.0487L190.663 34.6664L188.187 34.0029ZM189.258 35.6057C187.276 35.3456 183.567 35.2895 180.519 37.3313L179.092 35.2014C182.912 32.6417 187.387 32.7744 189.592 33.0637L189.258 35.6057ZM191.779 24.901C189.786 24.0744 185.745 22.1592 183.701 18.0003L186.002 16.8694C187.604 20.1291 190.854 21.7418 192.761 22.5328L191.779 24.901ZM186.031 17.9873L181.103 36.3775L178.627 35.7139L183.554 17.3238L186.031 17.9873ZM174.179 34.5221L179.106 16.1319L181.583 16.7955L176.655 35.1856L174.179 34.5221ZM200.705 27.0119L201.746 27.2907L201.082 29.7671L200.041 29.4883L200.705 27.0119ZM201.611 28.5819L199.894 34.9926L197.417 34.3291L199.135 27.9183L201.611 28.5819ZM199.364 36.1779L198.324 35.8991L198.987 33.4226L200.028 33.7014L199.364 36.1779ZM173.589 22.016L171.955 19.2164L174.17 17.9243L175.803 20.7239L173.589 22.016ZM171.822 26.4359L168.789 25.6233L169.452 23.1469L172.485 23.9595L171.822 26.4359ZM173.131 30.6967L170.316 32.3045L169.045 30.0783L171.859 28.4706L173.131 30.6967ZM201.746 27.2907C204.2 27.9483 205.656 30.4708 204.998 32.9249L202.522 32.2614C202.813 31.175 202.168 30.0583 201.082 29.7671L201.746 27.2907ZM181.103 36.3775C180.591 38.2896 178.625 39.4244 176.713 38.912L177.377 36.4356C177.921 36.5814 178.481 36.2583 178.627 35.7139L181.103 36.3775ZM183.554 17.3238C183.7 16.7793 183.377 16.2197 182.833 16.0738L183.496 13.5974C185.408 14.1098 186.543 16.0752 186.031 17.9873L183.554 17.3238ZM204.998 32.9249C204.341 35.3791 201.818 36.8354 199.364 36.1779L200.028 33.7014C201.114 33.9925 202.231 33.3478 202.522 32.2614L204.998 32.9249ZM199.092 24.2177C200.993 24.7271 202.121 26.681 201.611 28.5819L199.135 27.9183C199.278 27.3851 198.961 26.8371 198.428 26.6942L199.092 24.2177ZM179.106 16.1319C179.619 14.2198 181.584 13.085 183.496 13.5974L182.833 16.0738C182.288 15.928 181.729 16.251 181.583 16.7955L179.106 16.1319ZM191.185 45.1517C189.329 44.6543 188.228 42.7463 188.725 40.8899L191.201 41.5535C191.07 42.0421 191.36 42.5443 191.849 42.6753L191.185 45.1517ZM196.447 34.8892C196.87 35.0024 197.304 34.7516 197.417 34.3291L199.894 34.9926C199.414 36.7829 197.574 37.8453 195.784 37.3656L196.447 34.8892ZM176.713 38.912C174.801 38.3996 173.666 36.4342 174.179 34.5221L176.655 35.1856C176.509 35.7301 176.832 36.2897 177.377 36.4356L176.713 38.912ZM195.447 42.6912C194.95 44.5475 193.042 45.6491 191.185 45.1517L191.849 42.6753C192.338 42.8062 192.84 42.5162 192.971 42.0276L195.447 42.6912Z" fill="#CFD6E6"/>
<path d="M150.769 82.2686C150.772 82.9766 150.201 83.5531 149.493 83.5564C148.785 83.5596 148.208 82.9884 148.205 82.2804L150.769 82.2686ZM148.185 78.0151C148.182 77.3072 148.753 76.7306 149.461 76.7273C150.169 76.7241 150.746 77.2954 150.749 78.0033L148.185 78.0151ZM144.977 84.0574C145.478 84.558 145.478 85.3697 144.977 85.8703C144.477 86.3709 143.665 86.3709 143.164 85.8703L144.977 84.0574ZM140.243 82.9488C139.742 82.4482 139.742 81.6365 140.243 81.1359C140.743 80.6353 141.555 80.6353 142.056 81.1359L140.243 82.9488ZM141.58 88.905C142.288 88.9083 142.859 89.4848 142.856 90.1928C142.853 90.9008 142.276 91.472 141.568 91.4688L141.58 88.905ZM137.303 91.4492C136.595 91.446 136.024 90.8694 136.027 90.1614C136.03 89.4535 136.607 88.8822 137.315 88.8854L137.303 91.4492ZM164.881 113.879L158.82 119.94L157.007 118.127L163.068 112.066L164.881 113.879ZM152.917 114.037L158.978 107.976L160.791 109.789L154.73 115.849L152.917 114.037ZM168.876 95.6056L175.128 101.858L173.316 103.671L167.064 97.4185L168.876 95.6056ZM163.28 114.092L156.835 107.647L158.648 105.834L165.093 112.279L163.28 114.092ZM156.835 105.834L167.064 95.6056L168.876 97.4185L158.648 107.647L156.835 105.834ZM156.962 107.758C154.846 106.136 150.557 103.56 145.594 103.892L145.423 101.334C151.314 100.94 156.228 103.964 158.522 105.723L156.962 107.758ZM166.953 97.2919C165.234 95.0501 161.974 90.3132 162.37 84.3866L164.929 84.5576C164.599 89.4845 167.325 93.564 168.987 95.7321L166.953 97.2919ZM164.343 85.5911L146.628 103.307L144.815 101.494L162.53 83.7783L164.343 85.5911ZM140.53 97.2089L158.246 79.4934L160.058 81.3063L142.343 99.0218L140.53 97.2089ZM175.128 106.103L176.131 107.106L174.318 108.919L173.316 107.916L175.128 106.103ZM175.128 107.916L168.953 114.092L167.14 112.279L173.316 106.103L175.128 107.916ZM168.142 115.094L167.14 114.092L168.953 112.279L169.955 113.281L168.142 115.094ZM148.205 82.2804L148.185 78.0151L150.749 78.0033L150.769 82.2686L148.205 82.2804ZM143.164 85.8703L140.243 82.9488L142.056 81.1359L144.977 84.0574L143.164 85.8703ZM141.568 91.4688L137.303 91.4492L137.315 88.8854L141.58 88.905L141.568 91.4688ZM176.131 107.106C178.337 109.312 178.337 112.888 176.131 115.094L174.318 113.281C175.523 112.077 175.523 110.123 174.318 108.919L176.131 107.106ZM146.628 103.307C144.944 104.99 142.214 104.99 140.53 103.307L142.343 101.494C143.026 102.176 144.132 102.176 144.815 101.494L146.628 103.307ZM162.53 83.7783C163.213 83.0956 163.213 81.9889 162.53 81.3063L164.343 79.4934C166.027 81.1773 166.027 83.9073 164.343 85.5911L162.53 83.7783ZM176.131 115.094C173.925 117.3 170.348 117.3 168.142 115.094L169.955 113.281C171.16 114.486 173.113 114.486 174.318 113.281L176.131 115.094ZM175.128 101.858C176.802 103.531 176.802 106.243 175.128 107.916L173.316 106.103C173.987 105.432 173.987 104.342 173.316 103.671L175.128 101.858ZM158.246 79.4934C159.929 77.8096 162.659 77.8096 164.343 79.4934L162.53 81.3063C161.848 80.6237 160.741 80.6237 160.058 81.3063L158.246 79.4934ZM152.917 119.94C151.287 118.31 151.287 115.667 152.917 114.037L154.73 115.849C154.101 116.478 154.101 117.498 154.73 118.127L152.917 119.94ZM165.093 112.279C165.658 112.844 166.575 112.844 167.14 112.279L168.953 114.092C167.387 115.658 164.847 115.658 163.28 114.092L165.093 112.279ZM140.53 103.307C138.846 101.623 138.846 98.8927 140.53 97.2089L142.343 99.0218C141.66 99.7044 141.66 100.811 142.343 101.494L140.53 103.307ZM158.82 119.94C157.19 121.57 154.547 121.57 152.917 119.94L154.73 118.127C155.359 118.756 156.379 118.756 157.007 118.127L158.82 119.94Z" fill="#CFD6E6"/>
<path d="M70.8942 93.7457C70.891 94.4536 71.4622 95.0302 72.1702 95.0334C72.8782 95.0367 73.4547 94.4654 73.458 93.7575L70.8942 93.7457ZM73.4763 89.7631C73.4796 89.0551 72.9083 88.4786 72.2003 88.4753C71.4924 88.4721 70.9158 89.0434 70.9126 89.7513L73.4763 89.7631ZM76.3417 95.3636C75.8411 95.8642 75.8411 96.6759 76.3417 97.1765C76.8423 97.6771 77.654 97.6771 78.1546 97.1765L76.3417 95.3636ZM80.8905 94.4406C81.3911 93.94 81.3911 93.1283 80.8905 92.6277C80.3899 92.1271 79.5782 92.1271 79.0776 92.6277L80.8905 94.4406ZM79.58 99.8795C78.8721 99.8827 78.3008 100.459 78.304 101.167C78.3073 101.875 78.8838 102.447 79.5918 102.443L79.58 99.8795ZM83.5861 102.425C84.2941 102.422 84.8654 101.845 84.8621 101.137C84.8589 100.429 84.2823 99.8579 83.5744 99.8611L83.5861 102.425ZM57.7024 123.406L63.3778 129.082L65.1907 127.269L59.5153 121.593L57.7024 123.406ZM69.021 123.439L63.3456 117.763L61.5327 119.576L67.2081 125.251L69.021 123.439ZM53.9605 106.178L48.1055 112.033L49.9184 113.846L55.7734 107.991L53.9605 106.178ZM59.3162 123.605L65.3519 117.57L63.539 115.757L57.5033 121.793L59.3162 123.605ZM65.3519 115.757L55.7734 106.178L53.9605 107.991L63.539 117.57L65.3519 115.757ZM65.2254 117.681C67.2012 116.166 71.1979 113.768 75.8158 114.077L75.9868 111.519C70.4407 111.148 65.8196 113.995 63.6656 115.646L65.2254 117.681ZM55.8843 107.865C57.4955 105.763 60.5652 101.306 60.192 95.7241L57.6339 95.8951C57.9403 100.477 55.4043 104.277 53.8496 106.305L55.8843 107.865ZM58.2056 96.9151L74.7958 113.505L76.6087 111.692L60.0185 95.1022L58.2056 96.9151ZM80.6214 107.68L64.0312 91.0895L62.2183 92.9024L78.8085 109.493L80.6214 107.68ZM48.1055 116.009L47.1669 116.948L48.9797 118.761L49.9184 117.822L48.1055 116.009ZM48.1055 117.822L53.8888 123.605L55.7017 121.793L49.9184 116.009L48.1055 117.822ZM54.763 124.544L55.7017 123.605L53.8888 121.793L52.9501 122.731L54.763 124.544ZM73.458 93.7575L73.4763 89.7631L70.9126 89.7513L70.8942 93.7457L73.458 93.7575ZM78.1546 97.1765L80.8905 94.4406L79.0776 92.6277L76.3417 95.3636L78.1546 97.1765ZM79.5918 102.443L83.5861 102.425L83.5744 99.8611L79.58 99.8795L79.5918 102.443ZM47.1669 116.948C45.0692 119.046 45.0692 122.446 47.1669 124.544L48.9797 122.731C47.8833 121.635 47.8833 119.857 48.9797 118.761L47.1669 116.948ZM74.7958 113.505C76.4045 115.114 79.0127 115.114 80.6214 113.505L78.8085 111.692C78.201 112.3 77.2162 112.3 76.6087 111.692L74.7958 113.505ZM60.0185 95.1022C59.411 94.4948 59.411 93.5099 60.0185 92.9024L58.2056 91.0895C56.5969 92.6982 56.5969 95.3064 58.2056 96.9151L60.0185 95.1022ZM47.1669 124.544C49.2645 126.642 52.6654 126.642 54.763 124.544L52.9501 122.731C51.8537 123.828 50.0761 123.828 48.9797 122.731L47.1669 124.544ZM48.1055 112.033C46.507 113.632 46.507 116.224 48.1055 117.822L49.9184 116.009C49.3211 115.412 49.3211 114.443 49.9184 113.846L48.1055 112.033ZM64.0312 91.0895C62.4225 89.4809 59.8143 89.4809 58.2056 91.0895L60.0185 92.9024C60.6259 92.295 61.6108 92.295 62.2183 92.9024L64.0312 91.0895ZM69.021 129.082C70.5793 127.523 70.5793 124.997 69.021 123.439L67.2081 125.251C67.7652 125.809 67.7652 126.712 67.2081 127.269L69.021 129.082ZM57.5033 121.793C57.0058 122.29 56.1992 122.29 55.7017 121.793L53.8888 123.605C55.3875 125.104 57.8175 125.104 59.3162 123.605L57.5033 121.793ZM80.6214 113.505C82.2301 111.897 82.2301 109.288 80.6214 107.68L78.8085 109.493C79.416 110.1 79.416 111.085 78.8085 111.692L80.6214 113.505ZM63.3778 129.082C64.9361 130.64 67.4627 130.64 69.021 129.082L67.2081 127.269C66.651 127.826 65.7478 127.826 65.1907 127.269L63.3778 129.082Z" fill="#CFD6E6"/>
</svg>
