<svg width="24" height="24" viewBox="0 0 24 24" fill="none" xmlns="http://www.w3.org/2000/svg">
<path d="M16.9288 1H7.07111C3.7235 1 1 3.72363 1 7.07124V16.9289C1 20.2766 3.7235 23.0001 7.07111 23.0001H16.9288C20.2766 23.0001 23.0001 20.2765 23.0001 16.9289V7.07124C23.0003 3.72363 20.2766 1 16.9288 1ZM21.0483 16.9289C21.0483 19.2003 19.2003 21.0482 16.9289 21.0482H7.07111C4.79981 21.0483 2.95196 19.2003 2.95196 16.9289V7.07124C2.95196 4.79994 4.79981 2.95196 7.07111 2.95196H16.9288C19.2002 2.95196 21.0482 4.79994 21.0482 7.07124V16.9289H21.0483Z" fill="#3C3E42"/>
<path d="M11.9999 6.3313C8.87407 6.3313 6.33105 8.87431 6.33105 12.0002C6.33105 15.1259 8.87407 17.6688 11.9999 17.6688C15.1258 17.6688 17.6688 15.1259 17.6688 12.0002C17.6688 8.87431 15.1258 6.3313 11.9999 6.3313ZM11.9999 15.7167C9.95051 15.7167 8.28301 14.0495 8.28301 12C8.28301 9.95049 9.95038 8.28313 11.9999 8.28313C14.0495 8.28313 15.7169 9.95049 15.7169 12C15.7169 14.0495 14.0494 15.7167 11.9999 15.7167Z" fill="#3C3E42"/>
<path d="M17.9065 4.67615C17.5305 4.67615 17.161 4.8284 16.8954 5.09517C16.6285 5.36063 16.4751 5.73021 16.4751 6.10758C16.4751 6.48379 16.6287 6.85323 16.8954 7.12C17.1609 7.38547 17.5305 7.53902 17.9065 7.53902C18.2839 7.53902 18.6522 7.38547 18.919 7.12C19.1857 6.85323 19.338 6.48366 19.338 6.10758C19.338 5.73021 19.1857 5.36063 18.919 5.09517C18.6535 4.8284 18.2839 4.67615 17.9065 4.67615Z" fill="#3C3E42"/>
</svg>
