<svg width="24" height="24" viewBox="0 0 24 24" fill="none" xmlns="http://www.w3.org/2000/svg">
<path d="M6.64379 8.42627H2.61992C2.44134 8.42627 2.29663 8.57104 2.29663 8.74956V21.6765C2.29663 21.8551 2.44134 21.9998 2.61992 21.9998H6.64379C6.82238 21.9998 6.96708 21.8551 6.96708 21.6765V8.74956C6.96708 8.57104 6.82238 8.42627 6.64379 8.42627Z" fill="#3C3E42"/>
<path d="M4.63328 2C3.16916 2 1.97803 3.18984 1.97803 4.65234C1.97803 6.11549 3.16916 7.30578 4.63328 7.30578C6.09624 7.30578 7.2864 6.11543 7.2864 4.65234C7.28646 3.18984 6.09624 2 4.63328 2Z" fill="#3C3E42"/>
<path d="M16.8787 8.10498C15.2626 8.10498 14.0679 8.79973 13.3433 9.58915V8.74956C13.3433 8.57104 13.1986 8.42627 13.02 8.42627H9.16643C8.98784 8.42627 8.84314 8.57104 8.84314 8.74956V21.6765C8.84314 21.8551 8.98784 21.9998 9.16643 21.9998H13.1815C13.3601 21.9998 13.5048 21.8551 13.5048 21.6765V15.2807C13.5048 13.1254 14.0902 12.2858 15.5926 12.2858C17.2289 12.2858 17.3589 13.6318 17.3589 15.3916V21.6766C17.3589 21.8552 17.5036 21.9999 17.6822 21.9999H21.6987C21.8773 21.9999 22.022 21.8552 22.022 21.6766V14.5859C22.022 11.3811 21.4109 8.10498 16.8787 8.10498Z" fill="#3C3E42"/>
</svg>
