<svg width="24" height="24" viewBox="0 0 24 24" fill="none" xmlns="http://www.w3.org/2000/svg">
<path d="M19.2997 10.3495C19.3244 7.45391 16.8581 4.79938 13.8021 4.43231C13.7413 4.4251 13.6751 4.41413 13.605 4.40252C13.4537 4.37745 13.2972 4.35168 13.1394 4.35168C12.513 4.35168 12.3456 4.79166 12.3015 5.05407C12.2586 5.3092 12.2995 5.52345 12.4228 5.69113C12.6302 5.97318 12.9952 6.02325 13.2884 6.06337C13.3743 6.07523 13.4553 6.08627 13.5232 6.10151C16.269 6.71504 17.1935 7.67964 17.6453 10.402C17.6564 10.4686 17.6613 10.5505 17.6666 10.6375C17.6863 10.9629 17.7274 11.6399 18.4553 11.6399H18.4554C18.516 11.6399 18.5811 11.6347 18.6489 11.6244C19.3267 11.5214 19.3055 10.9025 19.2953 10.6051C19.2924 10.5214 19.2897 10.4422 19.2967 10.3895C19.2987 10.3762 19.2996 10.3629 19.2997 10.3495Z" fill="#3C3E42"/>
<path d="M12.9617 3.36942C13.043 3.37529 13.12 3.3809 13.1841 3.39072C17.6928 4.08411 19.7664 6.22034 20.341 10.7644C20.3507 10.8416 20.3523 10.9358 20.3539 11.0356C20.3596 11.3906 20.3714 12.1292 21.1645 12.1445L21.1892 12.1447C21.4379 12.1447 21.6358 12.0697 21.7773 11.9216C22.0242 11.6633 22.007 11.2797 21.9931 10.9714C21.9897 10.8957 21.9865 10.8245 21.9873 10.7621C22.0446 6.11471 18.0218 1.90049 13.3786 1.74378C13.3593 1.74314 13.341 1.74416 13.3224 1.74678C13.3133 1.74811 13.2964 1.74977 13.2674 1.74977C13.2211 1.74977 13.1642 1.74575 13.1038 1.74167C13.0307 1.7367 12.9479 1.73096 12.864 1.73096C12.1246 1.73096 11.984 2.25653 11.966 2.56983C11.9245 3.2939 12.625 3.34486 12.9617 3.36942Z" fill="#3C3E42"/>
<path d="M20.1234 16.6372C20.0276 16.564 19.9285 16.4882 19.8356 16.4135C19.3434 16.0173 18.8196 15.6522 18.3131 15.299C18.208 15.2258 18.1029 15.1525 17.9982 15.079C17.3494 14.6233 16.7661 14.4018 16.215 14.4018C15.4727 14.4018 14.8256 14.8119 14.2915 15.6207C14.0548 15.9792 13.7678 16.1535 13.414 16.1535C13.2047 16.1535 12.967 16.0938 12.7075 15.976C10.6133 15.0263 9.1179 13.5703 8.26276 11.6483C7.84938 10.7194 7.98339 10.1121 8.7109 9.61795C9.12402 9.33756 9.89299 8.81556 9.83852 7.81595C9.77684 6.6808 7.2722 3.26527 6.21691 2.87734C5.77011 2.71304 5.30066 2.71151 4.8191 2.87351C3.60594 3.28134 2.73537 3.99757 2.30126 4.94462C1.88175 5.85972 1.9007 6.93421 2.35605 8.05195C3.6724 11.2836 5.52314 14.1011 7.85703 16.4262C10.1415 18.7023 12.9493 20.5667 16.2024 21.9674C16.4956 22.0936 16.8031 22.1624 17.0277 22.2126C17.1043 22.2298 17.1703 22.2445 17.2185 22.2577C17.245 22.2649 17.2723 22.2688 17.2996 22.269L17.3253 22.2692C17.3254 22.2692 17.3253 22.2692 17.3255 22.2692C18.8555 22.2692 20.6926 20.871 21.2569 19.2771C21.7512 17.8814 20.8487 17.1915 20.1234 16.6372Z" fill="#3C3E42"/>
<path d="M13.6384 7.06098C13.3765 7.06762 12.8313 7.08114 12.64 7.63637C12.5506 7.89584 12.5613 8.12112 12.6719 8.30597C12.8343 8.57717 13.1455 8.66028 13.4285 8.70589C14.4548 8.87058 14.9819 9.43812 15.0873 10.4918C15.1363 10.9831 15.4672 11.3262 15.892 11.3262H15.892C15.9234 11.3262 15.9555 11.3244 15.9874 11.3205C16.4983 11.2597 16.746 10.8843 16.7236 10.2049C16.7318 9.49584 16.3607 8.69084 15.7296 8.04962C15.0963 7.40643 14.3328 7.04421 13.6384 7.06098Z" fill="#3C3E42"/>
</svg>
