<svg width="24" height="24" viewBox="0 0 24 24" fill="none" xmlns="http://www.w3.org/2000/svg">
<path d="M17.2788 13.6414C17.236 13.6209 15.6321 12.8311 15.3471 12.7285C15.2308 12.6867 15.1061 12.6459 14.9735 12.6459C14.757 12.6459 14.575 12.7539 14.4333 12.9659C14.2731 13.204 13.7881 13.7709 13.6383 13.9403C13.6187 13.9627 13.592 13.9894 13.576 13.9894C13.5616 13.9894 13.3134 13.8872 13.2383 13.8545C11.5178 13.1072 10.2118 11.3099 10.0328 11.0069C10.0072 10.9633 10.0061 10.9435 10.0059 10.9435C10.0122 10.9204 10.07 10.8624 10.0999 10.8325C10.1873 10.7461 10.2819 10.6322 10.3735 10.5219C10.4168 10.4697 10.4603 10.4174 10.5029 10.3682C10.6358 10.2136 10.6949 10.0936 10.7635 9.95459L10.7994 9.88237C10.9668 9.54973 10.8238 9.26902 10.7776 9.17837C10.7397 9.10252 10.0625 7.46809 9.99047 7.29637C9.81733 6.88202 9.58855 6.68909 9.27062 6.68909C9.24112 6.68909 9.27062 6.68909 9.1469 6.6943C8.99626 6.70066 8.1759 6.80866 7.81319 7.0373C7.42855 7.2798 6.77783 8.0528 6.77783 9.41223C6.77783 10.6357 7.55426 11.7909 7.88762 12.2303C7.8959 12.2414 7.91112 12.2639 7.93319 12.2962C9.20983 14.1606 10.8013 15.5423 12.4147 16.1868C13.9679 16.8072 14.7034 16.8789 15.1215 16.8789C15.1216 16.8789 15.1216 16.8789 15.1216 16.8789C15.2973 16.8789 15.438 16.8652 15.562 16.8529L15.6408 16.8454C16.1773 16.7979 17.3565 16.1869 17.6247 15.4415C17.836 14.8544 17.8917 14.213 17.7511 13.9802C17.6548 13.8219 17.4889 13.7423 17.2788 13.6414Z" fill="#3C3E42"/>
<path d="M12.1953 1C6.23698 1 1.38955 5.811 1.38955 11.7245C1.38955 13.6371 1.90141 15.5094 2.87106 17.1479L1.01513 22.6226C0.980555 22.7246 1.00627 22.8375 1.08177 22.9144C1.13627 22.97 1.2102 23 1.2857 23C1.31463 23 1.34377 22.9956 1.3722 22.9866L7.08077 21.1726C8.64291 22.0072 10.4085 22.4478 12.1953 22.4478C18.1531 22.4479 23 17.6374 23 11.7245C23 5.811 18.1531 1 12.1953 1ZM12.1953 20.2139C10.5139 20.2139 8.88541 19.7284 7.48556 18.8098C7.43848 18.7789 7.38384 18.763 7.32884 18.763C7.29977 18.763 7.27063 18.7674 7.24227 18.7764L4.38263 19.6854L5.30577 16.9619C5.33563 16.8738 5.3207 16.7766 5.2657 16.7014C4.1997 15.2449 3.6362 13.5239 3.6362 11.7245C3.6362 7.04286 7.47577 3.234 12.1952 3.234C16.9141 3.234 20.7532 7.04286 20.7532 11.7245C20.7533 16.4056 16.9142 20.2139 12.1953 20.2139Z" fill="#3C3E42"/>
</svg>
