<svg width="24" height="24" viewBox="0 0 24 24" fill="none" xmlns="http://www.w3.org/2000/svg">
<path d="M16.9991 2.00416L14.4056 2C11.4918 2 9.60886 3.9319 9.60886 6.92203V9.19141H7.00119C6.77586 9.19141 6.59338 9.37409 6.59338 9.59943V12.8875C6.59338 13.1128 6.77606 13.2953 7.00119 13.2953H9.60886V21.5922C9.60886 21.8175 9.79134 22 10.0167 22H13.4189C13.6443 22 13.8268 21.8173 13.8268 21.5922V13.2953H16.8757C17.1011 13.2953 17.2835 13.1128 17.2835 12.8875L17.2848 9.59943C17.2848 9.49123 17.2417 9.38762 17.1654 9.31105C17.089 9.23448 16.985 9.19141 16.8768 9.19141H13.8268V7.26763C13.8268 6.34298 14.0471 5.87358 15.2516 5.87358L16.9987 5.87295C17.2238 5.87295 17.4063 5.69027 17.4063 5.46514V2.41197C17.4063 2.18705 17.224 2.00458 16.9991 2.00416Z" fill="#3C3E42"/>
</svg>
