<svg display="none" xmlns="http://www.w3.org/2000/svg">


<symbol id="set1"  viewBox="0 0 288 108">                             
<g fill="white">
<path  d="M55.549 107.572C68.7756 107.572 69.6708 98.4625 83.7507 98.4625C111.525 98.4625 102.125 82.7507 120.499 91.724C136.158 99.3718 142.082 61.9668 154.029 61.9668C165.975 61.9668 165.549 68.8693 181.762 68.8693C197.975 68.8693 196.131 54.1269 205.655 54.4279C212.482 54.6436 215.042 74.6933 227.415 74.6933C239.788 74.6933 237.655 46.2204 256.428 46.0047C267.521 45.8772 269.228 52.6915 274.348 55.9271C278.444 58.5155 285.726 58.5949 288.855 57.5164"  stroke-width="2.5638"/>
<path   opacity="0.2" d="M45.3763 109.472C48.9954 108.541 52.8315 106.679 62.3858 106.679C74.6905 106.679 78.3752 109.472 89.5942 109.472C100.813 109.472 101.573 104.755 113.515 104.755C137.074 104.755 134.512 92.9345 143.573 96.4242C156.075 101.239 164.36 85.8894 174.493 85.8894C184.627 85.8894 184.265 89.4641 198.017 89.4641C211.769 89.4641 212.493 81.8735 218.283 81.9852C224.074 82.0969 226.245 92.4802 236.741 92.4802C247.236 92.4802 249.348 77.6231 261.35 77.623C268.92 77.623 272.207 81.086 276.55 82.7616C280.024 84.1021 286.201 84.1432 288.855 83.5847" stroke-width="2.5638"/>
<circle  cx="153.828" cy="61.3857" r="3.4184"/>
<circle  cx="111.953" cy="88.7328" r="3.4184"/>
<circle  cx="182.03" cy="69.0771" r="3.4184"/>
<circle  cx="227.323" cy="74.2048" r="3.4184"/>
<circle  cx="255.525" cy="46.0029" r="3.4184"/>
<circle  cx="204.249" cy="53.6943" r="3.4184"/>
</g>
</symbol>


                  <symbol id="set2"  viewBox="0 0 275 108">
                  <g>
<path  d="M146.915 61.9322C146.314 61.5721 145.652 61.3363 144.966 61.238C144.279 61.1398 143.583 61.1811 142.917 61.3596C142.251 61.5382 141.627 61.8504 141.082 62.2785C140.537 62.7066 140.082 63.2422 139.741 63.8546L139.034 65.1252L137.786 64.3785C136.571 63.6517 135.133 63.4459 133.788 63.8064C132.442 64.167 131.3 65.0642 130.611 66.3009C129.923 67.5376 129.745 69.0123 130.117 70.4007C130.489 71.7891 131.38 72.9774 132.595 73.7042L133.843 74.4509L143.001 79.9317L148.192 70.606L148.899 69.3354C149.24 68.7232 149.459 68.0459 149.544 67.3424C149.629 66.639 149.578 65.923 149.394 65.2355C149.21 64.548 148.896 63.9024 148.471 63.3356C148.045 62.7688 147.517 62.2919 146.915 61.9322V61.9322Z"  stroke-width="2.57143" stroke-linecap="round" stroke-linejoin="round"/>
<path d="M211.143 98.3954C210.402 97.803 209.556 97.366 208.654 97.1093C207.752 96.8526 206.811 96.7812 205.885 96.8993C204.959 97.0174 204.066 97.3226 203.257 97.7975C202.448 98.2724 201.739 98.9076 201.17 99.667L199.99 101.242L198.453 100.014C196.956 98.8175 195.065 98.2796 193.195 98.5181C191.324 98.7565 189.629 99.7519 188.48 101.285C187.332 102.818 186.825 104.764 187.071 106.694C187.317 108.623 188.296 110.38 189.792 111.575L191.33 112.804L202.614 121.823L211.275 110.261L212.455 108.686C213.024 107.927 213.441 107.058 213.683 106.13C213.925 105.202 213.987 104.233 213.865 103.277C213.743 102.322 213.44 101.399 212.973 100.561C212.506 99.7233 211.884 98.9875 211.143 98.3954V98.3954Z"  stroke-width="2.57143" stroke-linecap="round" stroke-linejoin="round"/>
<path  d="M260.181 -2.74293C259.434 -3.19017 258.611 -3.48318 257.759 -3.60522C256.906 -3.72725 256.042 -3.67592 255.214 -3.45416C254.386 -3.23239 253.612 -2.84454 252.935 -2.31276C252.258 -1.78098 251.692 -1.11569 251.268 -0.3549L250.39 1.22342L248.84 0.295823C247.331 -0.607004 245.545 -0.862611 243.873 -0.414768C242.202 0.0330747 240.783 1.14768 239.928 2.68386C239.073 4.22003 238.852 6.05193 239.314 7.77656C239.776 9.50119 240.883 10.9773 242.392 11.8801L243.942 12.8077L255.318 19.6159L261.766 8.03165L262.645 6.45333C263.068 5.69274 263.341 4.8515 263.446 3.97765C263.552 3.1038 263.488 2.21446 263.259 1.36045C263.03 0.506446 262.641 -0.295501 262.113 -0.999573C261.584 -1.70365 260.928 -2.29605 260.181 -2.74293V-2.74293Z"  stroke-width="2.57143" stroke-linecap="round" stroke-linejoin="round"/>
<path d="M7.74306 111.692L4.21154 110.746C3.58713 110.579 3.05475 110.17 2.73154 109.61C2.40832 109.05 2.32073 108.385 2.48804 107.761L4.696 99.5204C4.86331 98.896 5.27181 98.3637 5.83165 98.0404C6.39148 97.7172 7.05678 97.6296 7.68119 97.7969L11.2127 98.7432M20.0838 98.5968L21.3455 93.8881C21.5964 92.9515 21.4651 91.9536 20.9802 91.1138C20.4954 90.2741 19.6968 89.6613 18.7602 89.4103L11.2127 98.7432L7.74306 111.692L21.0216 115.25C21.5877 115.409 22.1919 115.357 22.7231 115.105C23.2543 114.854 23.6766 114.418 23.9122 113.88L28.3755 103.72C28.5171 103.397 28.5866 103.046 28.5793 102.693C28.572 102.34 28.4879 101.992 28.333 101.675C28.178 101.357 27.9559 101.077 27.682 100.854C27.4081 100.631 27.0889 100.47 26.7466 100.382L20.0838 98.5968Z"  stroke-width="2.57143" stroke-linecap="round" stroke-linejoin="round"/>
<path d="M236.232 81.038L231.036 84.038C230.117 84.5684 229.025 84.7122 228 84.4376C226.976 84.163 226.102 83.4926 225.571 82.5739L218.571 70.4495C218.041 69.5308 217.897 68.439 218.172 67.4143C218.446 66.3895 219.117 65.5159 220.036 64.9854L225.232 61.9854M235.356 51.5213L231.356 44.5931C230.56 43.215 229.25 42.2094 227.713 41.7976C226.176 41.3857 224.538 41.6013 223.16 42.397L225.232 61.9854L236.232 81.038L255.769 69.758C256.61 69.2851 257.252 68.5243 257.576 67.6156C257.9 66.707 257.885 65.7119 257.533 64.8135L250.924 47.845C250.712 47.3051 250.386 46.8175 249.968 46.416C249.549 46.0146 249.048 45.709 248.5 45.5203C247.952 45.3316 247.369 45.2644 246.792 45.3232C246.215 45.3821 245.658 45.5657 245.159 45.8613L235.356 51.5213Z"  stroke-width="2.57143" stroke-linecap="round" stroke-linejoin="round"/>
<path d="M246.102 112.171L242.023 111.079C241.302 110.885 240.687 110.414 240.314 109.767C239.941 109.121 239.84 108.352 240.033 107.631L242.583 98.1153C242.776 97.3942 243.248 96.7794 243.894 96.4062C244.541 96.0329 245.309 95.9317 246.03 96.125L250.108 97.2177M260.353 97.0487L261.81 91.611C262.1 90.5294 261.948 89.3769 261.388 88.4071C260.828 87.4374 259.906 86.7298 258.824 86.4399L250.108 97.2177L246.102 112.171L261.436 116.28C262.09 116.463 262.787 116.404 263.401 116.113C264.014 115.822 264.502 115.32 264.774 114.698L269.928 102.966C270.092 102.592 270.172 102.187 270.164 101.779C270.155 101.371 270.058 100.97 269.879 100.603C269.7 100.236 269.444 99.9128 269.128 99.6551C268.811 99.3974 268.443 99.2115 268.047 99.1104L260.353 97.0487Z"  stroke-width="2.57143" stroke-linecap="round" stroke-linejoin="round"/>
<path  d="M186.817 87.1228L183.726 90.2143C183.179 90.7609 182.438 91.068 181.665 91.068C180.892 91.068 180.15 90.7609 179.604 90.2143L172.39 83.0008C171.844 82.4542 171.537 81.7128 171.537 80.9398C171.537 80.1668 171.844 79.4254 172.39 78.8788L175.482 75.7873M180.634 66.5128L176.512 62.3908C175.692 61.5709 174.58 61.1102 173.421 61.1102C172.261 61.1102 171.149 61.5709 170.329 62.3908L175.482 75.7873L186.817 87.1228L198.441 75.4987C198.944 75.0073 199.252 74.3508 199.309 73.6501C199.366 72.9495 199.167 72.2519 198.751 71.6859L190.898 60.9893C190.648 60.6491 190.326 60.3674 189.956 60.1638C189.586 59.9602 189.176 59.8395 188.754 59.8101C188.333 59.7806 187.91 59.8432 187.515 59.9935C187.12 60.1437 186.762 60.378 186.467 60.6801L180.634 66.5128Z"  stroke-width="2.57143" stroke-linecap="round" stroke-linejoin="round"/>
<path d="M113.874 108.216L110.95 106.928C110.433 106.7 110.027 106.276 109.823 105.75C109.618 105.223 109.631 104.637 109.859 104.119L112.865 97.2953C113.092 96.7782 113.516 96.3727 114.043 96.1681C114.57 95.9635 115.156 95.9766 115.673 96.2043L118.598 97.4926M126.281 98.5486L127.999 94.6491C128.34 93.8734 128.36 92.9938 128.053 92.2037C127.746 91.4137 127.138 90.7779 126.362 90.4362L118.598 97.4926L113.874 108.216L124.871 113.06C125.339 113.272 125.868 113.309 126.36 113.162C126.853 113.015 127.276 112.695 127.551 112.262L132.761 104.08C132.926 103.819 133.033 103.526 133.074 103.22C133.115 102.913 133.089 102.602 132.997 102.307C132.905 102.012 132.751 101.741 132.544 101.511C132.337 101.282 132.083 101.1 131.799 100.979L126.281 98.5486Z"  stroke-width="2.57143" stroke-linecap="round" stroke-linejoin="round"/>
<path  d="M194.944 37.1944L192.235 36.001C191.756 35.79 191.38 35.3973 191.191 34.9094C191.001 34.4214 191.013 33.8782 191.224 33.3991L194.009 27.0772C194.22 26.5982 194.612 26.2226 195.1 26.033C195.588 25.8435 196.132 25.8556 196.611 26.0666L199.32 27.26M206.438 28.2383L208.029 24.6258C208.345 23.9073 208.363 23.0924 208.079 22.3605C207.795 21.6285 207.231 21.0395 206.513 20.723L199.32 27.26L194.944 37.1944L205.132 41.6816C205.565 41.8784 206.055 41.9119 206.511 41.776C206.967 41.64 207.359 41.3438 207.614 40.9419L212.441 33.3627C212.594 33.1211 212.693 32.8491 212.731 32.5655C212.768 32.2819 212.744 31.9935 212.659 31.7202C212.574 31.4469 212.431 31.1954 212.24 30.9829C212.048 30.7705 211.812 30.6023 211.549 30.4899L206.438 28.2383Z"  stroke-width="2.57143" stroke-linecap="round" stroke-linejoin="round"/>
<path  d="M77.045 98.6166L74.6023 100.027C74.1703 100.276 73.6571 100.344 73.1753 100.215C72.6936 100.086 72.2829 99.7705 72.0335 99.3386L68.7427 93.6388C68.4933 93.2069 68.4258 92.6936 68.5548 92.2118C68.6839 91.7301 68.9991 91.3194 69.431 91.07L71.8738 89.6597M76.6334 84.7403L74.7529 81.4833C74.3789 80.8354 73.7628 80.3627 73.0402 80.1691C72.3176 79.9754 71.5477 80.0768 70.8998 80.4508L71.8738 89.6597L77.045 98.6166L86.2299 93.3137C86.6252 93.0914 86.9269 92.7337 87.0793 92.3065C87.2317 91.8794 87.2246 91.4115 87.0593 90.9892L83.9519 83.0121C83.8526 82.7582 83.6992 82.529 83.5025 82.3403C83.3058 82.1516 83.0704 82.0079 82.8127 81.9192C82.5549 81.8305 82.2809 81.7988 82.0098 81.8265C81.7386 81.8542 81.4766 81.9405 81.2421 82.0795L76.6334 84.7403Z"  stroke-width="2.57143" stroke-linecap="round" stroke-linejoin="round"/>
</g>
</symbol>



<symbol id="set3"  viewBox="0 0 267 108">
<path  d="M165.739 52.1306L168.38 57.4804L174.285 58.3436L170.012 62.5055L171.02 68.3851L165.739 65.6076L160.457 68.3851L161.466 62.5055L157.193 58.3436L163.098 57.4804L165.739 52.1306Z"  stroke-width="2.5638" stroke-linecap="round" stroke-linejoin="round"/>
<path d="M253.549 97.3753L253.015 106.486L260.284 112.202L251.376 114.386L248.247 122.931L243.275 115.171L234.068 114.745L239.904 107.763L237.341 98.956L245.926 102.393L253.549 97.3753Z"  stroke-width="2.5638" stroke-linecap="round" stroke-linejoin="round"/>
<path  d="M251.988 -3.63198L251.454 5.47864L258.723 11.195L249.814 13.3789L246.686 21.9242L241.714 14.1636L232.507 13.738L238.343 6.75578L235.78 -2.05133L244.365 1.38554L251.988 -3.63198Z"  stroke-width="2.5638" stroke-linecap="round" stroke-linejoin="round"/>
<path  d="M107.978 77.4822L107.587 84.1419L112.901 88.3204L106.389 89.9168L104.102 96.1632L100.467 90.4904L93.7374 90.1792L98.0034 85.0754L96.1299 78.6377L102.405 81.1499L107.978 77.4822Z"  stroke-width="2.5638" stroke-linecap="round" stroke-linejoin="round"/>
<path d="M19.9539 95.429L19.5638 102.089L24.8771 106.267L18.3651 107.864L16.0781 114.11L12.4436 108.437L5.71365 108.126L9.97964 103.022L8.10618 96.5844L14.3815 99.0967L19.9539 95.429Z"  stroke-width="2.5638" stroke-linecap="round" stroke-linejoin="round"/>
<path d="M244.275 51.9142C243.919 52.5257 244.125 53.3106 244.737 53.6674C245.348 54.0242 246.133 53.8177 246.49 53.2062L244.275 51.9142ZM249.236 48.4997C249.593 47.8882 249.386 47.1032 248.775 46.7464C248.163 46.3896 247.378 46.5961 247.022 47.2076L249.236 48.4997ZM249.325 57.7572C248.641 57.9404 248.236 58.6433 248.419 59.3272C248.602 60.011 249.305 60.4168 249.989 60.2336L249.325 57.7572ZM255.087 58.8674C255.771 58.6842 256.177 57.9813 255.994 57.2974C255.811 56.6136 255.108 56.2078 254.424 56.391L255.087 58.8674ZM249.718 65.2557C249.104 64.9046 248.321 65.1182 247.969 65.733C247.618 66.3477 247.832 67.1308 248.447 67.4819L249.718 65.2557ZM253.178 70.1848C253.793 70.536 254.576 70.3223 254.927 69.7076C255.278 69.0928 255.065 68.3098 254.45 67.9586L253.178 70.1848ZM208.506 77.6023L211.34 88.1787L213.816 87.5152L210.982 76.9388L208.506 77.6023ZM220.954 85.6026L218.12 75.0261L215.644 75.6897L218.478 86.2661L220.954 85.6026ZM215.506 55.2677L204.595 58.1913L205.259 60.6677L216.17 57.7441L215.506 55.2677ZM209.705 78.6082L220.953 75.5943L220.289 73.1179L209.041 76.1317L209.705 78.6082ZM221.859 74.0243L217.076 56.1741L214.6 56.8377L219.383 74.6879L221.859 74.0243ZM220.788 75.6271C224.196 75.18 230.692 75.0595 236.078 78.6685L237.506 76.5386C231.347 72.4118 224.085 72.6088 220.454 73.0851L220.788 75.6271ZM216.329 57.69C219.651 56.3124 226.173 53.1958 229.46 46.5102L227.159 45.3793C224.315 51.1656 218.583 53.9798 215.347 55.3218L216.329 57.69ZM227.17 46.6475L235.454 77.5644L237.931 76.9008L229.647 45.984L227.17 46.6475ZM245.409 74.8971L237.125 43.9803L234.648 44.6438L242.932 75.5607L245.409 74.8971ZM201.883 62.8887L200.134 63.3575L200.797 65.8339L202.547 65.3652L201.883 62.8887ZM200.977 64.4587L203.864 75.2362L206.341 74.5726L203.453 63.7952L200.977 64.4587ZM203.685 76.6114L205.434 76.1426L204.771 73.6662L203.022 74.1349L203.685 76.6114ZM246.49 53.2062L249.236 48.4997L247.022 47.2076L244.275 51.9142L246.49 53.2062ZM249.989 60.2336L255.087 58.8674L254.424 56.391L249.325 57.7572L249.989 60.2336ZM248.447 67.4819L253.178 70.1848L254.45 67.9586L249.718 65.2557L248.447 67.4819ZM200.134 63.3575C196.474 64.3381 194.302 68.1001 195.283 71.7601L197.759 71.0965C197.145 68.8043 198.505 66.4481 200.797 65.8339L200.134 63.3575ZM235.454 77.5644C236.191 80.3132 239.016 81.9444 241.765 81.2079L241.102 78.7315C239.72 79.1015 238.301 78.2819 237.931 76.9008L235.454 77.5644ZM229.647 45.984C229.277 44.6029 230.096 43.1833 231.477 42.8132L230.814 40.3367C228.065 41.0733 226.434 43.8987 227.17 46.6475L229.647 45.984ZM195.283 71.7601C196.263 75.4201 200.025 77.592 203.685 76.6114L203.022 74.1349C200.729 74.7491 198.373 73.3888 197.759 71.0965L195.283 71.7601ZM204.595 58.1913C201.865 58.9228 200.245 61.7288 200.977 64.4587L203.453 63.7952C203.088 62.433 203.896 61.0328 205.259 60.6677L204.595 58.1913ZM237.125 43.9803C236.388 41.2315 233.563 39.6002 230.814 40.3367L231.477 42.8132C232.858 42.4431 234.278 43.2627 234.648 44.6438L237.125 43.9803ZM217.435 91.6979C220.09 90.9865 221.666 88.2575 220.954 85.6026L218.478 86.2661C218.823 87.5534 218.059 88.8765 216.771 89.2214L217.435 91.6979ZM209.041 76.1317C207.865 76.4469 206.656 75.7489 206.341 74.5726L203.864 75.2362C204.546 77.7801 207.161 79.2898 209.705 78.6082L209.041 76.1317ZM241.765 81.2079C244.514 80.4714 246.145 77.6459 245.409 74.8971L242.932 75.5607C243.302 76.9418 242.483 78.3614 241.102 78.7315L241.765 81.2079ZM211.34 88.1787C212.051 90.8337 214.78 92.4093 217.435 91.6979L216.771 89.2214C215.484 89.5663 214.161 88.8024 213.816 87.5152L211.34 88.1787Z"/>
<path  d="M175.803 20.7239C176.16 21.3354 175.953 22.1203 175.342 22.4771C174.731 22.8339 173.946 22.6275 173.589 22.016L175.803 20.7239ZM171.955 19.2164C171.598 18.6049 171.805 17.8199 172.416 17.4631C173.028 17.1063 173.813 17.3128 174.17 17.9243L171.955 19.2164ZM172.485 23.9595C173.169 24.1427 173.575 24.8457 173.392 25.5295C173.208 26.2134 172.505 26.6192 171.822 26.4359L172.485 23.9595ZM168.789 25.6233C168.105 25.4401 167.699 24.7372 167.882 24.0533C168.066 23.3695 168.769 22.9636 169.452 23.1469L168.789 25.6233ZM171.859 28.4706C172.474 28.1194 173.257 28.3331 173.608 28.9478C173.959 29.5625 173.746 30.3456 173.131 30.6967L171.859 28.4706ZM170.316 32.3045C169.702 32.6557 168.919 32.442 168.568 31.8272C168.216 31.2125 168.43 30.4295 169.045 30.0783L170.316 32.3045ZM197.133 36.4L195.447 42.6912L192.971 42.0276L194.656 35.7365L197.133 36.4ZM188.725 40.8899L190.411 34.5988L192.887 35.2624L191.201 41.5535L188.725 40.8899ZM192.602 22.4787L199.092 24.2177L198.428 26.6942L191.938 24.9551L192.602 22.4787ZM195.784 37.3656L189.093 35.5729L189.757 33.0964L196.447 34.8892L195.784 37.3656ZM188.187 34.0029L191.032 23.3851L193.508 24.0487L190.663 34.6664L188.187 34.0029ZM189.258 35.6057C187.276 35.3456 183.567 35.2895 180.519 37.3313L179.092 35.2014C182.912 32.6417 187.387 32.7744 189.592 33.0637L189.258 35.6057ZM191.779 24.901C189.786 24.0744 185.745 22.1592 183.701 18.0003L186.002 16.8694C187.604 20.1291 190.854 21.7418 192.761 22.5328L191.779 24.901ZM186.031 17.9873L181.103 36.3775L178.627 35.7139L183.554 17.3238L186.031 17.9873ZM174.179 34.5221L179.106 16.1319L181.583 16.7955L176.655 35.1856L174.179 34.5221ZM200.705 27.0119L201.746 27.2907L201.082 29.7671L200.041 29.4883L200.705 27.0119ZM201.611 28.5819L199.894 34.9926L197.417 34.3291L199.135 27.9183L201.611 28.5819ZM199.364 36.1779L198.324 35.8991L198.987 33.4226L200.028 33.7014L199.364 36.1779ZM173.589 22.016L171.955 19.2164L174.17 17.9243L175.803 20.7239L173.589 22.016ZM171.822 26.4359L168.789 25.6233L169.452 23.1469L172.485 23.9595L171.822 26.4359ZM173.131 30.6967L170.316 32.3045L169.045 30.0783L171.859 28.4706L173.131 30.6967ZM201.746 27.2907C204.2 27.9483 205.656 30.4708 204.998 32.9249L202.522 32.2614C202.813 31.175 202.168 30.0583 201.082 29.7671L201.746 27.2907ZM181.103 36.3775C180.591 38.2896 178.625 39.4244 176.713 38.912L177.377 36.4356C177.921 36.5814 178.481 36.2583 178.627 35.7139L181.103 36.3775ZM183.554 17.3238C183.7 16.7793 183.377 16.2197 182.833 16.0738L183.496 13.5974C185.408 14.1098 186.543 16.0752 186.031 17.9873L183.554 17.3238ZM204.998 32.9249C204.341 35.3791 201.818 36.8354 199.364 36.1779L200.028 33.7014C201.114 33.9925 202.231 33.3478 202.522 32.2614L204.998 32.9249ZM199.092 24.2177C200.993 24.7271 202.121 26.681 201.611 28.5819L199.135 27.9183C199.278 27.3851 198.961 26.8371 198.428 26.6942L199.092 24.2177ZM179.106 16.1319C179.619 14.2198 181.584 13.085 183.496 13.5974L182.833 16.0738C182.288 15.928 181.729 16.251 181.583 16.7955L179.106 16.1319ZM191.185 45.1517C189.329 44.6543 188.228 42.7463 188.725 40.8899L191.201 41.5535C191.07 42.0421 191.36 42.5443 191.849 42.6753L191.185 45.1517ZM196.447 34.8892C196.87 35.0024 197.304 34.7516 197.417 34.3291L199.894 34.9926C199.414 36.7829 197.574 37.8453 195.784 37.3656L196.447 34.8892ZM176.713 38.912C174.801 38.3996 173.666 36.4342 174.179 34.5221L176.655 35.1856C176.509 35.7301 176.832 36.2897 177.377 36.4356L176.713 38.912ZM195.447 42.6912C194.95 44.5475 193.042 45.6491 191.185 45.1517L191.849 42.6753C192.338 42.8062 192.84 42.5162 192.971 42.0276L195.447 42.6912Z"/>
<path d="M150.769 82.2686C150.772 82.9766 150.201 83.5531 149.493 83.5564C148.785 83.5596 148.208 82.9884 148.205 82.2804L150.769 82.2686ZM148.185 78.0151C148.182 77.3072 148.753 76.7306 149.461 76.7273C150.169 76.7241 150.746 77.2954 150.749 78.0033L148.185 78.0151ZM144.977 84.0574C145.478 84.558 145.478 85.3697 144.977 85.8703C144.477 86.3709 143.665 86.3709 143.164 85.8703L144.977 84.0574ZM140.243 82.9488C139.742 82.4482 139.742 81.6365 140.243 81.1359C140.743 80.6353 141.555 80.6353 142.056 81.1359L140.243 82.9488ZM141.58 88.905C142.288 88.9083 142.859 89.4848 142.856 90.1928C142.853 90.9008 142.276 91.472 141.568 91.4688L141.58 88.905ZM137.303 91.4492C136.595 91.446 136.024 90.8694 136.027 90.1614C136.03 89.4535 136.607 88.8822 137.315 88.8854L137.303 91.4492ZM164.881 113.879L158.82 119.94L157.007 118.127L163.068 112.066L164.881 113.879ZM152.917 114.037L158.978 107.976L160.791 109.789L154.73 115.849L152.917 114.037ZM168.876 95.6056L175.128 101.858L173.316 103.671L167.064 97.4185L168.876 95.6056ZM163.28 114.092L156.835 107.647L158.648 105.834L165.093 112.279L163.28 114.092ZM156.835 105.834L167.064 95.6056L168.876 97.4185L158.648 107.647L156.835 105.834ZM156.962 107.758C154.846 106.136 150.557 103.56 145.594 103.892L145.423 101.334C151.314 100.94 156.228 103.964 158.522 105.723L156.962 107.758ZM166.953 97.2919C165.234 95.0501 161.974 90.3132 162.37 84.3866L164.929 84.5576C164.599 89.4845 167.325 93.564 168.987 95.7321L166.953 97.2919ZM164.343 85.5911L146.628 103.307L144.815 101.494L162.53 83.7783L164.343 85.5911ZM140.53 97.2089L158.246 79.4934L160.058 81.3063L142.343 99.0218L140.53 97.2089ZM175.128 106.103L176.131 107.106L174.318 108.919L173.316 107.916L175.128 106.103ZM175.128 107.916L168.953 114.092L167.14 112.279L173.316 106.103L175.128 107.916ZM168.142 115.094L167.14 114.092L168.953 112.279L169.955 113.281L168.142 115.094ZM148.205 82.2804L148.185 78.0151L150.749 78.0033L150.769 82.2686L148.205 82.2804ZM143.164 85.8703L140.243 82.9488L142.056 81.1359L144.977 84.0574L143.164 85.8703ZM141.568 91.4688L137.303 91.4492L137.315 88.8854L141.58 88.905L141.568 91.4688ZM176.131 107.106C178.337 109.312 178.337 112.888 176.131 115.094L174.318 113.281C175.523 112.077 175.523 110.123 174.318 108.919L176.131 107.106ZM146.628 103.307C144.944 104.99 142.214 104.99 140.53 103.307L142.343 101.494C143.026 102.176 144.132 102.176 144.815 101.494L146.628 103.307ZM162.53 83.7783C163.213 83.0956 163.213 81.9889 162.53 81.3063L164.343 79.4934C166.027 81.1773 166.027 83.9073 164.343 85.5911L162.53 83.7783ZM176.131 115.094C173.925 117.3 170.348 117.3 168.142 115.094L169.955 113.281C171.16 114.486 173.113 114.486 174.318 113.281L176.131 115.094ZM175.128 101.858C176.802 103.531 176.802 106.243 175.128 107.916L173.316 106.103C173.987 105.432 173.987 104.342 173.316 103.671L175.128 101.858ZM158.246 79.4934C159.929 77.8096 162.659 77.8096 164.343 79.4934L162.53 81.3063C161.848 80.6237 160.741 80.6237 160.058 81.3063L158.246 79.4934ZM152.917 119.94C151.287 118.31 151.287 115.667 152.917 114.037L154.73 115.849C154.101 116.478 154.101 117.498 154.73 118.127L152.917 119.94ZM165.093 112.279C165.658 112.844 166.575 112.844 167.14 112.279L168.953 114.092C167.387 115.658 164.847 115.658 163.28 114.092L165.093 112.279ZM140.53 103.307C138.846 101.623 138.846 98.8927 140.53 97.2089L142.343 99.0218C141.66 99.7044 141.66 100.811 142.343 101.494L140.53 103.307ZM158.82 119.94C157.19 121.57 154.547 121.57 152.917 119.94L154.73 118.127C155.359 118.756 156.379 118.756 157.007 118.127L158.82 119.94Z"/>
<path d="M70.8942 93.7457C70.891 94.4536 71.4622 95.0302 72.1702 95.0334C72.8782 95.0367 73.4547 94.4654 73.458 93.7575L70.8942 93.7457ZM73.4763 89.7631C73.4796 89.0551 72.9083 88.4786 72.2003 88.4753C71.4924 88.4721 70.9158 89.0434 70.9126 89.7513L73.4763 89.7631ZM76.3417 95.3636C75.8411 95.8642 75.8411 96.6759 76.3417 97.1765C76.8423 97.6771 77.654 97.6771 78.1546 97.1765L76.3417 95.3636ZM80.8905 94.4406C81.3911 93.94 81.3911 93.1283 80.8905 92.6277C80.3899 92.1271 79.5782 92.1271 79.0776 92.6277L80.8905 94.4406ZM79.58 99.8795C78.8721 99.8827 78.3008 100.459 78.304 101.167C78.3073 101.875 78.8838 102.447 79.5918 102.443L79.58 99.8795ZM83.5861 102.425C84.2941 102.422 84.8654 101.845 84.8621 101.137C84.8589 100.429 84.2823 99.8579 83.5744 99.8611L83.5861 102.425ZM57.7024 123.406L63.3778 129.082L65.1907 127.269L59.5153 121.593L57.7024 123.406ZM69.021 123.439L63.3456 117.763L61.5327 119.576L67.2081 125.251L69.021 123.439ZM53.9605 106.178L48.1055 112.033L49.9184 113.846L55.7734 107.991L53.9605 106.178ZM59.3162 123.605L65.3519 117.57L63.539 115.757L57.5033 121.793L59.3162 123.605ZM65.3519 115.757L55.7734 106.178L53.9605 107.991L63.539 117.57L65.3519 115.757ZM65.2254 117.681C67.2012 116.166 71.1979 113.768 75.8158 114.077L75.9868 111.519C70.4407 111.148 65.8196 113.995 63.6656 115.646L65.2254 117.681ZM55.8843 107.865C57.4955 105.763 60.5652 101.306 60.192 95.7241L57.6339 95.8951C57.9403 100.477 55.4043 104.277 53.8496 106.305L55.8843 107.865ZM58.2056 96.9151L74.7958 113.505L76.6087 111.692L60.0185 95.1022L58.2056 96.9151ZM80.6214 107.68L64.0312 91.0895L62.2183 92.9024L78.8085 109.493L80.6214 107.68ZM48.1055 116.009L47.1669 116.948L48.9797 118.761L49.9184 117.822L48.1055 116.009ZM48.1055 117.822L53.8888 123.605L55.7017 121.793L49.9184 116.009L48.1055 117.822ZM54.763 124.544L55.7017 123.605L53.8888 121.793L52.9501 122.731L54.763 124.544ZM73.458 93.7575L73.4763 89.7631L70.9126 89.7513L70.8942 93.7457L73.458 93.7575ZM78.1546 97.1765L80.8905 94.4406L79.0776 92.6277L76.3417 95.3636L78.1546 97.1765ZM79.5918 102.443L83.5861 102.425L83.5744 99.8611L79.58 99.8795L79.5918 102.443ZM47.1669 116.948C45.0692 119.046 45.0692 122.446 47.1669 124.544L48.9797 122.731C47.8833 121.635 47.8833 119.857 48.9797 118.761L47.1669 116.948ZM74.7958 113.505C76.4045 115.114 79.0127 115.114 80.6214 113.505L78.8085 111.692C78.201 112.3 77.2162 112.3 76.6087 111.692L74.7958 113.505ZM60.0185 95.1022C59.411 94.4948 59.411 93.5099 60.0185 92.9024L58.2056 91.0895C56.5969 92.6982 56.5969 95.3064 58.2056 96.9151L60.0185 95.1022ZM47.1669 124.544C49.2645 126.642 52.6654 126.642 54.763 124.544L52.9501 122.731C51.8537 123.828 50.0761 123.828 48.9797 122.731L47.1669 124.544ZM48.1055 112.033C46.507 113.632 46.507 116.224 48.1055 117.822L49.9184 116.009C49.3211 115.412 49.3211 114.443 49.9184 113.846L48.1055 112.033ZM64.0312 91.0895C62.4225 89.4809 59.8143 89.4809 58.2056 91.0895L60.0185 92.9024C60.6259 92.295 61.6108 92.295 62.2183 92.9024L64.0312 91.0895ZM69.021 129.082C70.5793 127.523 70.5793 124.997 69.021 123.439L67.2081 125.251C67.7652 125.809 67.7652 126.712 67.2081 127.269L69.021 129.082ZM57.5033 121.793C57.0058 122.29 56.1992 122.29 55.7017 121.793L53.8888 123.605C55.3875 125.104 57.8175 125.104 59.3162 123.605L57.5033 121.793ZM80.6214 113.505C82.2301 111.897 82.2301 109.288 80.6214 107.68L78.8085 109.493C79.416 110.1 79.416 111.085 78.8085 111.692L80.6214 113.505ZM63.3778 129.082C64.9361 130.64 67.4627 130.64 69.021 129.082L67.2081 127.269C66.651 127.826 65.7478 127.826 65.1907 127.269L63.3778 129.082Z"/>
          </symbol>
          


          <symbol id="soc1"  viewBox="0 0 24 24">
<path d="M16.9288 1H7.07111C3.7235 1 1 3.72363 1 7.07124V16.9289C1 20.2766 3.7235 23.0001 7.07111 23.0001H16.9288C20.2766 23.0001 23.0001 20.2765 23.0001 16.9289V7.07124C23.0003 3.72363 20.2766 1 16.9288 1ZM21.0483 16.9289C21.0483 19.2003 19.2003 21.0482 16.9289 21.0482H7.07111C4.79981 21.0483 2.95196 19.2003 2.95196 16.9289V7.07124C2.95196 4.79994 4.79981 2.95196 7.07111 2.95196H16.9288C19.2002 2.95196 21.0482 4.79994 21.0482 7.07124V16.9289H21.0483Z"/>
<path d="M11.9999 6.3313C8.87407 6.3313 6.33105 8.87431 6.33105 12.0002C6.33105 15.1259 8.87407 17.6688 11.9999 17.6688C15.1258 17.6688 17.6688 15.1259 17.6688 12.0002C17.6688 8.87431 15.1258 6.3313 11.9999 6.3313ZM11.9999 15.7167C9.95051 15.7167 8.28301 14.0495 8.28301 12C8.28301 9.95049 9.95038 8.28313 11.9999 8.28313C14.0495 8.28313 15.7169 9.95049 15.7169 12C15.7169 14.0495 14.0494 15.7167 11.9999 15.7167Z"/>
<path d="M17.9065 4.67615C17.5305 4.67615 17.161 4.8284 16.8954 5.09517C16.6285 5.36063 16.4751 5.73021 16.4751 6.10758C16.4751 6.48379 16.6287 6.85323 16.8954 7.12C17.1609 7.38547 17.5305 7.53902 17.9065 7.53902C18.2839 7.53902 18.6522 7.38547 18.919 7.12C19.1857 6.85323 19.338 6.48366 19.338 6.10758C19.338 5.73021 19.1857 5.36063 18.919 5.09517C18.6535 4.8284 18.2839 4.67615 17.9065 4.67615Z"/>
</symbol>

<symbol id="soc2"  viewBox="0 0 24 24">
<path d="M23.8728 17.5199C23.8437 17.4573 23.8166 17.4053 23.7915 17.3637C23.3751 16.6138 22.5793 15.6933 21.4047 14.6019L21.3799 14.5769L21.3675 14.5647L21.3549 14.5521H21.3423C20.8093 14.0439 20.4717 13.7023 20.3303 13.5273C20.0716 13.1941 20.0137 12.8568 20.1551 12.515C20.2549 12.2568 20.6301 11.7114 21.2797 10.8782C21.6214 10.4367 21.892 10.0828 22.0918 9.81614C23.5331 7.90002 24.158 6.67559 23.9663 6.14238L23.8919 6.01777C23.8418 5.94276 23.7127 5.87413 23.5047 5.81154C23.2962 5.74909 23.0297 5.73876 22.7047 5.78038L19.106 5.80524C19.0477 5.78458 18.9645 5.78651 18.856 5.81154C18.7477 5.83658 18.6935 5.84914 18.6935 5.84914L18.6309 5.88043L18.5812 5.91803C18.5395 5.94289 18.4937 5.98661 18.4436 6.04911C18.3939 6.11139 18.3523 6.18448 18.319 6.26777C17.9272 7.27577 17.4817 8.21295 16.9818 9.07928C16.6735 9.59586 16.3904 10.0436 16.1319 10.4226C15.8737 10.8016 15.6571 11.0807 15.4823 11.2597C15.3073 11.4388 15.1493 11.5824 15.0074 11.6908C14.8657 11.7992 14.7575 11.845 14.6827 11.8283C14.6076 11.8115 14.5369 11.7949 14.47 11.7783C14.3534 11.7032 14.2597 11.6012 14.189 11.4721C14.118 11.343 14.0702 11.1805 14.0452 10.9847C14.0204 10.7888 14.0057 10.6203 14.0015 10.4786C13.9976 10.3371 13.9994 10.137 14.0078 9.87877C14.0165 9.62041 14.0204 9.44561 14.0204 9.35396C14.0204 9.03735 14.0265 8.69373 14.0389 8.32303C14.0515 7.95232 14.0617 7.6586 14.0703 7.44221C14.0788 7.22561 14.0827 6.99645 14.0827 6.75485C14.0827 6.51326 14.068 6.32379 14.0389 6.18627C14.0102 6.04893 13.9661 5.91562 13.9081 5.78638C13.8496 5.65726 13.7641 5.55739 13.6519 5.48648C13.5395 5.41567 13.3997 5.35947 13.2333 5.31772C12.7917 5.2178 12.2295 5.16375 11.5462 5.15534C9.99683 5.13871 9.00126 5.23876 8.55974 5.45537C8.3848 5.54688 8.22649 5.67192 8.08495 5.8301C7.93496 6.01344 7.91404 6.11349 8.02232 6.12995C8.52223 6.20483 8.87613 6.38397 9.08442 6.66719L9.15948 6.81726C9.21786 6.92554 9.27616 7.11724 9.3345 7.3921C9.39275 7.66696 9.43035 7.97101 9.44689 8.30407C9.48847 8.9123 9.48847 9.43296 9.44689 9.86608C9.40518 10.2994 9.36579 10.6367 9.3282 10.8783C9.2906 11.1199 9.23441 11.3156 9.15948 11.4655C9.08442 11.6155 9.03448 11.7071 9.00944 11.7404C8.98445 11.7737 8.96362 11.7946 8.94708 11.8029C8.8388 11.8443 8.72618 11.8655 8.60963 11.8655C8.4929 11.8655 8.35136 11.8071 8.18478 11.6904C8.01825 11.5737 7.84542 11.4135 7.66628 11.2093C7.48714 11.0052 7.28511 10.7198 7.0601 10.3533C6.83527 9.98683 6.60199 9.55367 6.3604 9.05385L6.16052 8.69137C6.03556 8.45818 5.86487 8.11863 5.64827 7.67304C5.43153 7.22727 5.23996 6.79608 5.07343 6.37955C5.00686 6.20461 4.90685 6.07143 4.77358 5.97978L4.71104 5.94219C4.66946 5.90892 4.60272 5.8736 4.51116 5.83596C4.41946 5.79837 4.32379 5.77141 4.22374 5.75482L0.799886 5.77968C0.450013 5.77968 0.21262 5.85894 0.0876216 6.01725L0.0375959 6.09213C0.0126049 6.13384 0 6.20046 0 6.29215C0 6.3838 0.024991 6.49628 0.0750167 6.62946C0.574836 7.80417 1.11838 8.93708 1.70564 10.0284C2.29291 11.1197 2.80323 11.9987 3.23631 12.6648C3.66947 13.3313 4.11099 13.9604 4.56087 14.5516C5.01076 15.1432 5.30855 15.5222 5.45425 15.6888C5.60012 15.8556 5.7147 15.9803 5.79799 16.0636L6.11045 16.3635C6.31037 16.5634 6.60396 16.8029 6.99135 17.0819C7.37882 17.3611 7.80778 17.636 8.27845 17.907C8.7492 18.1775 9.29686 18.3982 9.92172 18.569C10.5465 18.7399 11.1546 18.8085 11.7461 18.7754H13.1832C13.4746 18.7502 13.6954 18.6586 13.8455 18.5004L13.8952 18.4378C13.9286 18.388 13.9599 18.3108 13.9888 18.2068C14.0181 18.1027 14.0326 17.988 14.0326 17.8632C14.0241 17.5051 14.0513 17.1823 14.1136 16.8949C14.1759 16.6076 14.2469 16.391 14.3263 16.2452C14.4057 16.0994 14.4952 15.9764 14.5949 15.8767C14.6947 15.7768 14.7659 15.7163 14.8077 15.6955C14.8491 15.6745 14.8823 15.6603 14.9073 15.6517C15.1072 15.5851 15.3425 15.6496 15.6135 15.8456C15.8843 16.0413 16.1383 16.2831 16.3758 16.5704C16.6133 16.8579 16.8985 17.1805 17.2317 17.5387C17.5651 17.8969 17.8566 18.1633 18.1064 18.3385L18.3562 18.4884C18.523 18.5885 18.7396 18.6801 19.0063 18.7634C19.2724 18.8466 19.5056 18.8675 19.7058 18.8258L22.9046 18.7759C23.221 18.7759 23.4672 18.7236 23.6419 18.6196C23.8168 18.5155 23.9208 18.4008 23.9543 18.276C23.9877 18.1511 23.9895 18.0094 23.9607 17.8509C23.931 17.6929 23.9018 17.5824 23.8728 17.5199Z"/>
</symbol>

<symbol id="soc3"  viewBox="0 0 24 24">
<path d="M16.9991 2.00416L14.4056 2C11.4918 2 9.60886 3.9319 9.60886 6.92203V9.19141H7.00119C6.77586 9.19141 6.59338 9.37409 6.59338 9.59943V12.8875C6.59338 13.1128 6.77606 13.2953 7.00119 13.2953H9.60886V21.5922C9.60886 21.8175 9.79134 22 10.0167 22H13.4189C13.6443 22 13.8268 21.8173 13.8268 21.5922V13.2953H16.8757C17.1011 13.2953 17.2835 13.1128 17.2835 12.8875L17.2848 9.59943C17.2848 9.49123 17.2417 9.38762 17.1654 9.31105C17.089 9.23448 16.985 9.19141 16.8768 9.19141H13.8268V7.26763C13.8268 6.34298 14.0471 5.87358 15.2516 5.87358L16.9987 5.87295C17.2238 5.87295 17.4063 5.69027 17.4063 5.46514V2.41197C17.4063 2.18705 17.224 2.00458 16.9991 2.00416Z"/>
</symbol>

<symbol id="soc4"  viewBox="0 0 24 24">
<path d="M6.64379 8.42627H2.61992C2.44134 8.42627 2.29663 8.57104 2.29663 8.74956V21.6765C2.29663 21.8551 2.44134 21.9998 2.61992 21.9998H6.64379C6.82238 21.9998 6.96708 21.8551 6.96708 21.6765V8.74956C6.96708 8.57104 6.82238 8.42627 6.64379 8.42627Z"/>
<path d="M4.63328 2C3.16916 2 1.97803 3.18984 1.97803 4.65234C1.97803 6.11549 3.16916 7.30578 4.63328 7.30578C6.09624 7.30578 7.2864 6.11543 7.2864 4.65234C7.28646 3.18984 6.09624 2 4.63328 2Z"/>
<path d="M16.8787 8.10498C15.2626 8.10498 14.0679 8.79973 13.3433 9.58915V8.74956C13.3433 8.57104 13.1986 8.42627 13.02 8.42627H9.16643C8.98784 8.42627 8.84314 8.57104 8.84314 8.74956V21.6765C8.84314 21.8551 8.98784 21.9998 9.16643 21.9998H13.1815C13.3601 21.9998 13.5048 21.8551 13.5048 21.6765V15.2807C13.5048 13.1254 14.0902 12.2858 15.5926 12.2858C17.2289 12.2858 17.3589 13.6318 17.3589 15.3916V21.6766C17.3589 21.8552 17.5036 21.9999 17.6822 21.9999H21.6987C21.8773 21.9999 22.022 21.8552 22.022 21.6766V14.5859C22.022 11.3811 21.4109 8.10498 16.8787 8.10498Z"/>
</symbol>

<symbol id="soc5"  viewBox="0 0 24 24">
<path d="M19.2997 10.3495C19.3244 7.45391 16.8581 4.79938 13.8021 4.43231C13.7413 4.4251 13.6751 4.41413 13.605 4.40252C13.4537 4.37745 13.2972 4.35168 13.1394 4.35168C12.513 4.35168 12.3456 4.79166 12.3015 5.05407C12.2586 5.3092 12.2995 5.52345 12.4228 5.69113C12.6302 5.97318 12.9952 6.02325 13.2884 6.06337C13.3743 6.07523 13.4553 6.08627 13.5232 6.10151C16.269 6.71504 17.1935 7.67964 17.6453 10.402C17.6564 10.4686 17.6613 10.5505 17.6666 10.6375C17.6863 10.9629 17.7274 11.6399 18.4553 11.6399H18.4554C18.516 11.6399 18.5811 11.6347 18.6489 11.6244C19.3267 11.5214 19.3055 10.9025 19.2953 10.6051C19.2924 10.5214 19.2897 10.4422 19.2967 10.3895C19.2987 10.3762 19.2996 10.3629 19.2997 10.3495Z"/>
<path d="M12.9617 3.36942C13.043 3.37529 13.12 3.3809 13.1841 3.39072C17.6928 4.08411 19.7664 6.22034 20.341 10.7644C20.3507 10.8416 20.3523 10.9358 20.3539 11.0356C20.3596 11.3906 20.3714 12.1292 21.1645 12.1445L21.1892 12.1447C21.4379 12.1447 21.6358 12.0697 21.7773 11.9216C22.0242 11.6633 22.007 11.2797 21.9931 10.9714C21.9897 10.8957 21.9865 10.8245 21.9873 10.7621C22.0446 6.11471 18.0218 1.90049 13.3786 1.74378C13.3593 1.74314 13.341 1.74416 13.3224 1.74678C13.3133 1.74811 13.2964 1.74977 13.2674 1.74977C13.2211 1.74977 13.1642 1.74575 13.1038 1.74167C13.0307 1.7367 12.9479 1.73096 12.864 1.73096C12.1246 1.73096 11.984 2.25653 11.966 2.56983C11.9245 3.2939 12.625 3.34486 12.9617 3.36942Z"/>
<path d="M20.1234 16.6372C20.0276 16.564 19.9285 16.4882 19.8356 16.4135C19.3434 16.0173 18.8196 15.6522 18.3131 15.299C18.208 15.2258 18.1029 15.1525 17.9982 15.079C17.3494 14.6233 16.7661 14.4018 16.215 14.4018C15.4727 14.4018 14.8256 14.8119 14.2915 15.6207C14.0548 15.9792 13.7678 16.1535 13.414 16.1535C13.2047 16.1535 12.967 16.0938 12.7075 15.976C10.6133 15.0263 9.1179 13.5703 8.26276 11.6483C7.84938 10.7194 7.98339 10.1121 8.7109 9.61795C9.12402 9.33756 9.89299 8.81556 9.83852 7.81595C9.77684 6.6808 7.2722 3.26527 6.21691 2.87734C5.77011 2.71304 5.30066 2.71151 4.8191 2.87351C3.60594 3.28134 2.73537 3.99757 2.30126 4.94462C1.88175 5.85972 1.9007 6.93421 2.35605 8.05195C3.6724 11.2836 5.52314 14.1011 7.85703 16.4262C10.1415 18.7023 12.9493 20.5667 16.2024 21.9674C16.4956 22.0936 16.8031 22.1624 17.0277 22.2126C17.1043 22.2298 17.1703 22.2445 17.2185 22.2577C17.245 22.2649 17.2723 22.2688 17.2996 22.269L17.3253 22.2692C17.3254 22.2692 17.3253 22.2692 17.3255 22.2692C18.8555 22.2692 20.6926 20.871 21.2569 19.2771C21.7512 17.8814 20.8487 17.1915 20.1234 16.6372Z"/>
<path d="M13.6384 7.06098C13.3765 7.06762 12.8313 7.08114 12.64 7.63637C12.5506 7.89584 12.5613 8.12112 12.6719 8.30597C12.8343 8.57717 13.1455 8.66028 13.4285 8.70589C14.4548 8.87058 14.9819 9.43812 15.0873 10.4918C15.1363 10.9831 15.4672 11.3262 15.892 11.3262H15.892C15.9234 11.3262 15.9555 11.3244 15.9874 11.3205C16.4983 11.2597 16.746 10.8843 16.7236 10.2049C16.7318 9.49584 16.3607 8.69084 15.7296 8.04962C15.0963 7.40643 14.3328 7.04421 13.6384 7.06098Z"/>
</symbol>


<symbol id="soc6"  viewBox="0 0 24 24">
<path d="M17.2788 13.6414C17.236 13.6209 15.6321 12.8311 15.3471 12.7285C15.2308 12.6867 15.1061 12.6459 14.9735 12.6459C14.757 12.6459 14.575 12.7539 14.4333 12.9659C14.2731 13.204 13.7881 13.7709 13.6383 13.9403C13.6187 13.9627 13.592 13.9894 13.576 13.9894C13.5616 13.9894 13.3134 13.8872 13.2383 13.8545C11.5178 13.1072 10.2118 11.3099 10.0328 11.0069C10.0072 10.9633 10.0061 10.9435 10.0059 10.9435C10.0122 10.9204 10.07 10.8624 10.0999 10.8325C10.1873 10.7461 10.2819 10.6322 10.3735 10.5219C10.4168 10.4697 10.4603 10.4174 10.5029 10.3682C10.6358 10.2136 10.6949 10.0936 10.7635 9.95459L10.7994 9.88237C10.9668 9.54973 10.8238 9.26902 10.7776 9.17837C10.7397 9.10252 10.0625 7.46809 9.99047 7.29637C9.81733 6.88202 9.58855 6.68909 9.27062 6.68909C9.24112 6.68909 9.27062 6.68909 9.1469 6.6943C8.99626 6.70066 8.1759 6.80866 7.81319 7.0373C7.42855 7.2798 6.77783 8.0528 6.77783 9.41223C6.77783 10.6357 7.55426 11.7909 7.88762 12.2303C7.8959 12.2414 7.91112 12.2639 7.93319 12.2962C9.20983 14.1606 10.8013 15.5423 12.4147 16.1868C13.9679 16.8072 14.7034 16.8789 15.1215 16.8789C15.1216 16.8789 15.1216 16.8789 15.1216 16.8789C15.2973 16.8789 15.438 16.8652 15.562 16.8529L15.6408 16.8454C16.1773 16.7979 17.3565 16.1869 17.6247 15.4415C17.836 14.8544 17.8917 14.213 17.7511 13.9802C17.6548 13.8219 17.4889 13.7423 17.2788 13.6414Z"/>
<path d="M12.1953 1C6.23698 1 1.38955 5.811 1.38955 11.7245C1.38955 13.6371 1.90141 15.5094 2.87106 17.1479L1.01513 22.6226C0.980555 22.7246 1.00627 22.8375 1.08177 22.9144C1.13627 22.97 1.2102 23 1.2857 23C1.31463 23 1.34377 22.9956 1.3722 22.9866L7.08077 21.1726C8.64291 22.0072 10.4085 22.4478 12.1953 22.4478C18.1531 22.4479 23 17.6374 23 11.7245C23 5.811 18.1531 1 12.1953 1ZM12.1953 20.2139C10.5139 20.2139 8.88541 19.7284 7.48556 18.8098C7.43848 18.7789 7.38384 18.763 7.32884 18.763C7.29977 18.763 7.27063 18.7674 7.24227 18.7764L4.38263 19.6854L5.30577 16.9619C5.33563 16.8738 5.3207 16.7766 5.2657 16.7014C4.1997 15.2449 3.6362 13.5239 3.6362 11.7245C3.6362 7.04286 7.47577 3.234 12.1952 3.234C16.9141 3.234 20.7532 7.04286 20.7532 11.7245C20.7533 16.4056 16.9142 20.2139 12.1953 20.2139Z"/>
</symbol>


<symbol id="soc7"  viewBox="0 0 24 24">
<path d="M9.84784 14.5451L9.517 19.0122C9.99034 19.0122 10.1953 18.817 10.4412 18.5827L12.6604 16.5467L17.2588 19.7794C18.1022 20.2306 18.6964 19.993 18.9239 19.0346L21.9423 5.45712L21.9431 5.45632C22.2106 4.25952 21.4923 3.79153 20.6706 4.08512L2.9285 10.6059C1.71764 11.0571 1.73598 11.7051 2.72267 11.9987L7.25861 13.3531L17.7947 7.02431C18.2905 6.70911 18.7414 6.88351 18.3705 7.19871L9.84784 14.5451Z"/>
</symbol>

<symbol id="phone"  viewBox="0 0 24 24">
<path d="M22 16.9201V19.9201C22.0011 20.1986 21.9441 20.4743 21.8325 20.7294C21.7209 20.9846 21.5573 21.2137 21.3521 21.402C21.1468 21.5902 20.9046 21.7336 20.6407 21.8228C20.3769 21.912 20.0974 21.9452 19.82 21.9201C16.7428 21.5857 13.787 20.5342 11.19 18.8501C8.77382 17.3148 6.72533 15.2663 5.18999 12.8501C3.49997 10.2413 2.44824 7.27109 2.11999 4.1801C2.095 3.90356 2.12787 3.62486 2.21649 3.36172C2.30512 3.09859 2.44756 2.85679 2.63476 2.65172C2.82196 2.44665 3.0498 2.28281 3.30379 2.17062C3.55777 2.05843 3.83233 2.00036 4.10999 2.0001H7.10999C7.5953 1.99532 8.06579 2.16718 8.43376 2.48363C8.80173 2.80008 9.04207 3.23954 9.10999 3.7201C9.23662 4.68016 9.47144 5.62282 9.80999 6.5301C9.94454 6.88802 9.97366 7.27701 9.8939 7.65098C9.81415 8.02494 9.62886 8.36821 9.35999 8.6401L8.08999 9.9101C9.51355 12.4136 11.5864 14.4865 14.09 15.9101L15.36 14.6401C15.6319 14.3712 15.9751 14.1859 16.3491 14.1062C16.7231 14.0264 17.1121 14.0556 17.47 14.1901C18.3773 14.5286 19.3199 14.7635 20.28 14.8901C20.7658 14.9586 21.2094 15.2033 21.5265 15.5776C21.8437 15.9519 22.0122 16.4297 22 16.9201Z" stroke-width="2" stroke-linecap="round" stroke-linejoin="round"/>
</symbol>


<symbol id="price"  viewBox="0 0 48 48">
<path d="M23.999 0C10.7459 0 0 10.7459 0 23.999C0 37.2521 10.7459 48 23.999 48C37.2521 48 48 37.2521 48 23.999C48 10.7459 37.2521 0 23.999 0ZM28.995 37.1952C27.7597 37.6828 26.7764 38.0526 26.0389 38.3086C25.3034 38.5646 24.448 38.6926 23.4748 38.6926C21.9794 38.6926 20.8152 38.3269 19.9863 37.5975C19.1573 36.8681 18.7449 35.9436 18.7449 34.8201C18.7449 34.3832 18.7754 33.9363 18.8363 33.4811C18.8993 33.026 18.9989 32.514 19.135 31.9391L20.6811 26.4777C20.8173 25.9535 20.9351 25.4557 21.0286 24.9925C21.122 24.5252 21.1667 24.0965 21.1667 23.7064C21.1667 23.0116 21.0225 22.5239 20.736 22.2497C20.4455 21.9754 19.8989 21.8413 19.0842 21.8413C18.686 21.8413 18.2756 21.9002 17.855 22.0241C17.4385 22.1521 17.0768 22.2679 16.7802 22.3817L17.1886 20.6994C18.2004 20.287 19.1695 19.9335 20.094 19.6409C21.0184 19.3443 21.8921 19.198 22.7149 19.198C24.2001 19.198 25.346 19.5596 26.1526 20.2748C26.9552 20.992 27.3595 21.9246 27.3595 23.0705C27.3595 23.3082 27.331 23.7267 27.2762 24.3241C27.2213 24.9234 27.1177 25.47 26.9674 25.9718L25.4293 31.4169C25.3034 31.8537 25.1916 32.3535 25.09 32.9123C24.9905 33.471 24.9417 33.8977 24.9417 34.1841C24.9417 34.9074 25.1022 35.4011 25.4273 35.6632C25.7483 35.9253 26.3111 36.0574 27.1076 36.0574C27.4834 36.0574 27.904 35.9903 28.3794 35.8603C28.8508 35.7303 29.1921 35.6145 29.4075 35.5149L28.995 37.1952ZM28.7228 15.0938C28.0056 15.7603 27.1421 16.0935 26.1323 16.0935C25.1246 16.0935 24.255 15.7603 23.5317 15.0938C22.8124 14.4274 22.4488 13.6168 22.4488 12.67C22.4488 11.7252 22.8145 10.9125 23.5317 10.24C24.255 9.56546 25.1246 9.23022 26.1323 9.23022C27.1421 9.23022 28.0076 9.56546 28.7228 10.24C29.44 10.9125 29.7996 11.7252 29.7996 12.67C29.7996 13.6188 29.44 14.4274 28.7228 15.0938Z" fill="#CFD6E6"/>
</symbol>



              </svg>